<svg width="327" height="48" viewBox="0 0 327 48" fill="none" xmlns="http://www.w3.org/2000/svg">
<rect width="327" height="48" rx="4" fill="#F3F7F4"/>
<circle cx="19" cy="24" r="3" fill="#A5A8B0"/>
<circle cx="35" cy="24" r="3" fill="#A5A8B0"/>
<circle cx="51" cy="24" r="3" fill="#A5A8B0"/>
<circle cx="67" cy="24" r="3" fill="#A5A8B0"/>
<circle cx="83" cy="24" r="3" fill="#A5A8B0"/>
<circle cx="99" cy="24" r="3" fill="#A5A8B0"/>
<circle cx="115" cy="24" r="3" fill="#A5A8B0"/>
<circle cx="131" cy="24" r="3" fill="#A5A8B0"/>
<circle cx="147" cy="24" r="3" fill="#A5A8B0"/>
<circle cx="163" cy="24" r="3" fill="#A5A8B0"/>
<circle cx="179" cy="24" r="3" fill="#A5A8B0"/>
<path d="M311 24C311 24 308 18.5 303 18.5C298 18.5 295 24 295 24C295 24 298 29.5 303 29.5C308 29.5 311 24 311 24ZM296.173 24C296.657 23.2651 297.213 22.5807 297.833 21.957C299.12 20.668 300.88 19.5 303 19.5C305.12 19.5 306.879 20.668 308.168 21.957C308.788 22.5807 309.344 23.2651 309.828 24C309.77 24.087 309.706 24.183 309.633 24.288C309.298 24.768 308.803 25.408 308.168 26.043C306.879 27.332 305.119 28.5 303 28.5C300.88 28.5 299.121 27.332 297.832 26.043C297.212 25.4193 296.656 24.7349 296.172 24H296.173Z" fill="#8C8A93"/>
<path d="M303 21.5C302.337 21.5 301.701 21.7634 301.232 22.2322C300.763 22.7011 300.5 23.337 300.5 24C300.5 24.663 300.763 25.2989 301.232 25.7678C301.701 26.2366 302.337 26.5 303 26.5C303.663 26.5 304.299 26.2366 304.768 25.7678C305.237 25.2989 305.5 24.663 305.5 24C305.5 23.337 305.237 22.7011 304.768 22.2322C304.299 21.7634 303.663 21.5 303 21.5ZM299.5 24C299.5 23.0717 299.869 22.1815 300.525 21.5251C301.182 20.8687 302.072 20.5 303 20.5C303.928 20.5 304.818 20.8687 305.475 21.5251C306.131 22.1815 306.5 23.0717 306.5 24C306.5 24.9283 306.131 25.8185 305.475 26.4749C304.818 27.1313 303.928 27.5 303 27.5C302.072 27.5 301.182 27.1313 300.525 26.4749C299.869 25.8185 299.5 24.9283 299.5 24Z" fill="#8C8A93"/>
</svg>
