<svg width="40" height="40" viewBox="0 0 40 40" fill="none" xmlns="http://www.w3.org/2000/svg">
<path fill-rule="evenodd" clip-rule="evenodd" d="M20.2979 27.9991C17.868 25.9509 16.3272 22.9032 16.3272 19.5C16.3272 16.0967 17.868 13.049 20.2979 11.0009C18.3244 9.33747 15.7646 8.33331 12.9674 8.33331C6.72593 8.33331 1.66623 13.3328 1.66623 19.5C1.66623 25.6672 6.72593 30.6666 12.9674 30.6666C15.7646 30.6666 18.3244 29.6625 20.2979 27.9991Z" fill="white"/>
<path opacity="0.7" fill-rule="evenodd" clip-rule="evenodd" d="M20.2988 27.9991C22.7286 25.9509 24.2694 22.9033 24.2694 19.5C24.2694 16.0968 22.7286 13.0491 20.2988 11.001C17.8689 13.0491 16.3281 16.0968 16.3281 19.5C16.3281 22.9033 17.8689 25.9509 20.2988 27.9991Z" fill="white"/>
<path opacity="0.3" fill-rule="evenodd" clip-rule="evenodd" d="M20.2979 27.9991C22.7277 25.9509 24.2685 22.9032 24.2685 19.5C24.2685 16.0967 22.7277 13.049 20.2979 11.0009C22.2713 9.33747 24.8311 8.33331 27.6283 8.33331C33.8698 8.33331 38.9295 13.3328 38.9295 19.5C38.9295 25.6672 33.8698 30.6666 27.6283 30.6666C24.8311 30.6666 22.2713 29.6625 20.2979 27.9991Z" fill="white"/>
</svg>
