<svg width="20" height="20" viewBox="0 0 20 20" fill="none" xmlns="http://www.w3.org/2000/svg">
<path d="M15.2941 13.3332C14.92 13.3346 14.5499 13.4116 14.2062 13.5596C13.8626 13.7076 13.5523 13.9235 13.2941 14.1943L6.52199 10.8055C6.68858 10.3003 6.68858 9.75504 6.52199 9.24991L13.3053 5.79995C13.7911 6.31196 14.45 6.62503 15.1539 6.6783C15.8577 6.73158 16.5562 6.52126 17.1136 6.08822C17.671 5.65518 18.0475 5.03035 18.1699 4.3352C18.2923 3.64004 18.1518 2.92421 17.7758 2.32683C17.3998 1.72946 16.8152 1.29323 16.1354 1.10292C15.4557 0.91261 14.7295 0.981825 14.098 1.29711C13.4665 1.61239 12.9748 2.15122 12.7184 2.80887C12.462 3.46651 12.4593 4.19599 12.7108 4.85551L5.99422 8.27214C5.63147 7.82851 5.14039 7.50792 4.5883 7.35433C4.0362 7.20075 3.45012 7.22167 2.91038 7.41424C2.37064 7.60682 1.90368 7.96161 1.57349 8.42999C1.24331 8.89836 1.06607 9.4574 1.06607 10.0305C1.06607 10.6035 1.24331 11.1626 1.57349 11.6309C1.90368 12.0993 2.37064 12.4541 2.91038 12.6467C3.45012 12.8392 4.0362 12.8602 4.5883 12.7066C5.14039 12.553 5.63147 12.2324 5.99422 11.7888L12.6942 15.161C12.5809 15.4649 12.5226 15.7866 12.5219 16.111C12.5219 16.6603 12.6848 17.1974 12.9901 17.6542C13.2953 18.111 13.7291 18.467 14.2367 18.6773C14.7443 18.8875 15.3028 18.9425 15.8416 18.8353C16.3804 18.7281 16.8754 18.4636 17.2638 18.0751C17.6523 17.6866 17.9169 17.1917 18.0241 16.6529C18.1312 16.114 18.0762 15.5555 17.866 15.048C17.6557 14.5404 17.2997 14.1066 16.8429 13.8013C16.3861 13.4961 15.8491 13.3332 15.2997 13.3332H15.2941ZM15.2941 2.2222C15.6238 2.2222 15.946 2.31995 16.2201 2.50309C16.4941 2.68622 16.7078 2.94651 16.8339 3.25106C16.9601 3.5556 16.9931 3.8907 16.9288 4.214C16.8644 4.5373 16.7057 4.83427 16.4726 5.06735C16.2395 5.30044 15.9426 5.45917 15.6193 5.52348C15.296 5.58779 14.9609 5.55478 14.6563 5.42864C14.3518 5.30249 14.0915 5.08887 13.9084 4.8148C13.7252 4.54072 13.6275 4.21849 13.6275 3.88885C13.6275 3.44683 13.8031 3.02291 14.1156 2.71036C14.4282 2.3978 14.8521 2.2222 15.2941 2.2222ZM3.88869 11.6666C3.55905 11.6666 3.23682 11.5688 2.96274 11.3857C2.68867 11.2025 2.47505 10.9422 2.3489 10.6377C2.22276 10.3332 2.18975 9.99805 2.25406 9.67476C2.31837 9.35146 2.4771 9.05449 2.71019 8.8214C2.94327 8.58832 3.24024 8.42959 3.56354 8.36528C3.88684 8.30097 4.22194 8.33398 4.52648 8.46012C4.83103 8.58627 5.09132 8.79988 5.27445 9.07396C5.45759 9.34804 5.55534 9.67027 5.55534 9.9999C5.55534 10.4419 5.37974 10.8658 5.06719 11.1784C4.75463 11.491 4.33071 11.6666 3.88869 11.6666ZM15.2941 17.7776C14.9645 17.7776 14.6423 17.6799 14.3682 17.4967C14.0941 17.3136 13.8805 17.0533 13.7543 16.7488C13.6282 16.4442 13.5952 16.1091 13.6595 15.7858C13.7238 15.4625 13.8825 15.1655 14.1156 14.9325C14.3487 14.6994 14.6457 14.5406 14.969 14.4763C15.2923 14.412 15.6274 14.445 15.9319 14.5712C16.2365 14.6973 16.4968 14.9109 16.6799 15.185C16.863 15.4591 16.9608 15.7813 16.9608 16.111C16.9608 16.553 16.7852 16.9769 16.4726 17.2895C16.1601 17.602 15.7362 17.7776 15.2941 17.7776Z" fill="#7519EB"/>
</svg>
