<svg width="12" height="12" viewBox="0 0 12 12" fill="none" xmlns="http://www.w3.org/2000/svg">
<g clip-path="url(#clip0_137_11234)">
<path d="M6.46967 5.99998L9.233 3.23665C9.28761 3.17288 9.31614 3.09085 9.3129 3.00696C9.30966 2.92307 9.27488 2.84349 9.21552 2.78413C9.15616 2.72476 9.07658 2.68998 8.99268 2.68674C8.90879 2.6835 8.82677 2.71204 8.763 2.76665L5.99967 5.52998L3.23633 2.76331C3.17356 2.70055 3.08843 2.66528 2.99967 2.66528C2.9109 2.66528 2.82577 2.70055 2.763 2.76331C2.70023 2.82608 2.66497 2.91121 2.66497 2.99998C2.66497 3.08875 2.70023 3.17388 2.763 3.23665L5.52967 5.99998L2.763 8.76331C2.7281 8.7932 2.69976 8.82997 2.67976 8.87132C2.65975 8.91268 2.64851 8.95772 2.64673 9.00363C2.64496 9.04953 2.65269 9.09531 2.66945 9.13809C2.68621 9.18086 2.71163 9.21971 2.74412 9.2522C2.7766 9.28468 2.81545 9.3101 2.85822 9.32686C2.901 9.34362 2.94678 9.35135 2.99268 9.34958C3.03859 9.34781 3.08363 9.33656 3.12499 9.31655C3.16634 9.29655 3.20312 9.26821 3.233 9.23331L5.99967 6.46998L8.763 9.23331C8.82677 9.28792 8.90879 9.31646 8.99268 9.31322C9.07658 9.30998 9.15616 9.2752 9.21552 9.21583C9.27488 9.15647 9.30966 9.07689 9.3129 8.993C9.31614 8.90911 9.28761 8.82708 9.233 8.76331L6.46967 5.99998Z" fill="#51535E"/>
</g>
<defs>
<clipPath id="clip0_137_11234">
<rect width="12" height="12" fill="white"/>
</clipPath>
</defs>
</svg>
