<svg width="100" height="40" viewBox="0 0 100 40" fill="none" xmlns="http://www.w3.org/2000/svg">
<rect width="100" height="40" rx="20" fill="#F3F7F4"/>
<g clip-path="url(#clip0_80_8499)">
<path d="M72 12.2781C72.0976 12.3967 72.1574 12.5418 72.1717 12.6948C72.1859 12.8477 72.154 13.0014 72.08 13.1361C71.5019 14.1975 71.1999 15.3873 71.202 16.5961C71.202 20.6171 74.48 23.8731 78.52 23.8731C79.047 23.8731 79.56 23.8181 80.053 23.7131C80.2041 23.6803 80.3615 23.6928 80.5056 23.749C80.6497 23.8052 80.774 23.9026 80.863 24.0291C80.957 24.1605 81.0049 24.3193 80.9993 24.4808C80.9937 24.6423 80.9349 24.7974 80.832 24.9221C80.0477 25.8855 79.0583 26.6618 77.9358 27.1942C76.8134 27.7267 75.5863 28.002 74.344 28.0001C69.734 28.0001 66 24.2861 66 19.7101C66 16.2661 68.114 13.3121 71.124 12.0601C71.2739 11.9967 71.4404 11.9837 71.5984 12.023C71.7563 12.0623 71.8973 12.1518 72 12.2781ZM70.858 13.3111C69.7006 13.9319 68.733 14.8547 68.0581 15.9814C67.3832 17.1081 67.0262 18.3967 67.025 19.7101C67.025 23.7301 70.304 26.9861 74.344 26.9861C75.3114 26.9877 76.2696 26.7975 77.1631 26.4264C78.0565 26.0553 78.8675 25.5107 79.549 24.8241C79.212 24.8661 78.869 24.8871 78.52 24.8871C73.91 24.8871 70.177 21.1731 70.177 16.5971C70.177 15.4301 70.419 14.3191 70.858 13.3111Z" fill="#A5A8B0"/>
</g>
<rect x="3" y="3" width="45" height="34" rx="17" fill="#7519EB"/>
<path d="M25.5 13H26.5V15.5H25.5V13ZM28.844 16.45L30.597 14.697L31.304 15.404L29.551 17.157L28.844 16.45ZM30.5 19.5H33V20.5H30.5V19.5ZM28.844 23.55L29.551 22.8435L31.304 24.5965L30.597 25.3035L28.844 23.55ZM25.5 24.5H26.5V27H25.5V24.5ZM20.697 24.596L22.45 22.843L23.157 23.55L21.4045 25.303L20.697 24.596ZM19 19.5H21.5V20.5H19V19.5ZM20.6975 15.404L21.4045 14.697L23.1575 16.45L22.45 17.157L20.6975 15.404ZM26 18C26.3956 18 26.7822 18.1173 27.1111 18.3371C27.44 18.5568 27.6964 18.8692 27.8478 19.2346C27.9991 19.6001 28.0387 20.0022 27.9616 20.3902C27.8844 20.7781 27.6939 21.1345 27.4142 21.4142C27.1345 21.6939 26.7781 21.8844 26.3902 21.9616C26.0022 22.0387 25.6001 21.9991 25.2346 21.8478C24.8692 21.6964 24.5568 21.44 24.3371 21.1111C24.1173 20.7822 24 20.3956 24 20C24.0007 19.4698 24.2116 18.9614 24.5865 18.5865C24.9614 18.2116 25.4698 18.0007 26 18ZM26 17C25.4067 17 24.8266 17.1759 24.3333 17.5056C23.8399 17.8352 23.4554 18.3038 23.2284 18.8519C23.0013 19.4001 22.9419 20.0033 23.0576 20.5853C23.1734 21.1672 23.4591 21.7018 23.8787 22.1213C24.2982 22.5409 24.8328 22.8266 25.4147 22.9424C25.9967 23.0581 26.5999 22.9987 27.1481 22.7716C27.6962 22.5446 28.1648 22.1601 28.4944 21.6667C28.8241 21.1734 29 20.5933 29 20C29 19.2044 28.6839 18.4413 28.1213 17.8787C27.5587 17.3161 26.7956 17 26 17Z" fill="#313133"/>
<defs>
<clipPath id="clip0_80_8499">
<rect width="16" height="16" fill="white" transform="translate(66 12)"/>
</clipPath>
</defs>
</svg>
