<svg width="327" height="555" viewBox="0 0 327 555" fill="none" xmlns="http://www.w3.org/2000/svg">
<path fill-rule="evenodd" clip-rule="evenodd" d="M0 32C0 16.9151 0 9.37258 4.68629 4.68629C9.37258 0 16.9151 0 32 0H295C310.085 0 317.627 0 322.314 4.68629C327 9.37258 327 16.9151 327 32V403C321.477 403 317 407.477 317 413C317 418.523 321.477 423 327 423V523C327 538.085 327 545.627 322.314 550.314C317.627 555 310.085 555 295 555H40C21.1438 555 11.7157 555 5.85786 549.142C0 543.284 0 533.856 0 515V423C5.52285 423 10 418.523 10 413C10 407.477 5.52285 403 0 403V32Z" fill="#F3F7F4"/>
</svg>
