<svg width="20" height="20" viewBox="0 0 20 20" fill="none" xmlns="http://www.w3.org/2000/svg">
<path d="M15.7969 2.39168C14.9651 1.44367 13.4616 1.03723 11.5382 1.03723H5.95588C5.76558 1.03724 5.58152 1.10513 5.43679 1.22871C5.29207 1.35228 5.19617 1.52343 5.16635 1.71138L2.84197 16.4531C2.79577 16.7438 3.02086 17.0071 3.3155 17.0071H6.76183L7.62735 11.5172L7.60049 11.6891C7.66216 11.3011 7.99404 11.0148 8.38704 11.0148H10.0247C13.242 11.0148 15.7611 9.70809 16.497 5.92791C16.5188 5.81611 16.5378 5.70729 16.5541 5.60098C16.4612 5.55179 16.4612 5.55179 16.5541 5.60098C16.7732 4.20379 16.5526 3.25273 15.7969 2.39168Z" fill="#27346A"/>
<path d="M8.94605 5.09766C9.04027 5.0528 9.14332 5.02955 9.24767 5.02961H13.6241C14.1423 5.02961 14.6257 5.06334 15.0674 5.13443C15.191 5.15414 15.314 5.17767 15.4362 5.20499C15.6093 5.24319 15.7804 5.28995 15.9489 5.34508C16.1661 5.41761 16.3683 5.50207 16.5542 5.60098C16.7732 4.20325 16.5526 3.25273 15.7969 2.39168C14.9647 1.44367 13.4616 1.03723 11.5382 1.03723H5.9554C5.56234 1.03723 5.22795 1.32339 5.16634 1.71138L2.84197 16.4526C2.79577 16.7438 3.02086 17.0066 3.31502 17.0066H6.76183L8.55752 5.61936C8.57518 5.50744 8.61976 5.40147 8.68744 5.3106C8.75513 5.21972 8.84387 5.14664 8.94605 5.09766Z" fill="#003087"/>
<path d="M16.497 5.92788C15.7611 9.70753 13.242 11.0148 10.0247 11.0148H8.38657C7.99357 11.0148 7.66162 11.301 7.60056 11.6891L6.52379 18.5151C6.48356 18.7695 6.6803 19 6.93769 19H9.84286C10.0093 19 10.1702 18.9406 10.2967 18.8324C10.4233 18.7243 10.5071 18.5746 10.5331 18.4103L10.5614 18.2622L11.1089 14.792L11.1442 14.6002C11.1702 14.4359 11.254 14.2862 11.3805 14.1781C11.507 14.07 11.6679 14.0105 11.8343 14.0105H12.2691C15.0834 14.0105 17.287 12.8672 17.931 9.56051C18.1997 8.17866 18.0607 7.02495 17.3496 6.21458C17.134 5.96913 16.8661 5.76642 16.5541 5.60095C16.5372 5.7078 16.5189 5.81608 16.497 5.92788Z" fill="#009CDE"/>
<path d="M15.7836 5.29392C15.6688 5.26041 15.553 5.23075 15.4363 5.20498C15.3141 5.1781 15.1911 5.15474 15.0676 5.1349C14.6254 5.06333 14.1424 5.02954 13.6237 5.02954H9.24776C9.14333 5.02931 9.04021 5.05276 8.94614 5.09813C8.84385 5.14696 8.755 5.21999 8.68729 5.31089C8.61958 5.4018 8.57505 5.50784 8.55755 5.61983L7.62745 11.5172L7.60059 11.6891C7.66177 11.3011 7.99365 11.0148 8.38672 11.0148H10.0249C13.2421 11.0148 15.7612 9.70808 16.4971 5.9279C16.519 5.81609 16.5374 5.70775 16.5543 5.60097C16.3679 5.5026 16.1662 5.4176 15.949 5.34555C15.8942 5.32738 15.8391 5.31016 15.7836 5.29392" fill="#012169"/>
</svg>
