<svg width="16" height="16" viewBox="0 0 16 16" fill="none" xmlns="http://www.w3.org/2000/svg">
<path d="M15.9998 8.17753C15.9998 7.51976 15.9453 7.03976 15.8275 6.54199H8.16309V9.51084H12.6619C12.5712 10.2486 12.0814 11.3597 10.993 12.1064L10.9777 12.2058L13.4011 14.0455L13.569 14.062C15.1109 12.6664 15.9998 10.6131 15.9998 8.17753Z" fill="#4285F4"/>
<path d="M8.1626 16C10.3666 16 12.2169 15.2888 13.5684 14.0622L10.9925 12.1066C10.3032 12.5777 9.37798 12.9066 8.1626 12.9066C6.0039 12.9066 4.17173 11.5111 3.51861 9.58215L3.42288 9.59012L0.90307 11.5012L0.870117 11.591C2.2125 14.2044 4.96985 16 8.1626 16Z" fill="#576DD6"/>
<path d="M3.51922 9.58226C3.34689 9.08449 3.24716 8.55112 3.24716 8.00004C3.24716 7.4489 3.34689 6.91558 3.51016 6.41782L3.50559 6.3118L0.9542 4.37L0.870723 4.40891C0.317462 5.49336 0 6.71116 0 8.00004C0 9.28892 0.317462 10.5067 0.870723 11.5911L3.51922 9.58226Z" fill="#FBBC05"/>
<path d="M8.16264 3.0933C9.69549 3.0933 10.7295 3.74218 11.3191 4.28444L13.6229 2.07999C12.208 0.791111 10.3667 0 8.16264 0C4.96988 0 2.2125 1.79553 0.870117 4.40884L3.50956 6.41775C4.17175 4.48887 6.00393 3.0933 8.16264 3.0933Z" fill="#EB4335"/>
</svg>
