<svg width="124" height="65" viewBox="0 0 124 65" fill="none" xmlns="http://www.w3.org/2000/svg">
<path d="M114.731 64.3819C112.661 64.296 110.687 63.488 109.151 62.0983L63.4032 20.3551L14.1779 56.5486C13.2399 57.2449 12.1736 57.7489 11.0402 58.0318C9.90682 58.3147 8.7287 58.3708 7.57356 58.1968C6.41843 58.0229 5.30905 57.6224 4.3092 57.0184C3.30935 56.4143 2.43874 55.6186 1.74741 54.677C1.0511 53.739 0.54703 52.6727 0.264161 51.5393C-0.018708 50.4059 -0.0747925 49.2278 0.0991313 48.0727C0.273055 46.9175 0.673557 45.8082 1.27762 44.8083C1.88168 43.8084 2.67739 42.9378 3.61901 42.2465L58.6206 1.77864C60.2621 0.544869 62.2809 -0.0808357 64.3324 0.00837506C66.3839 0.0975858 68.3408 0.89618 69.8689 2.26778L121.084 48.8632C121.949 49.6457 122.651 50.5911 123.149 51.6452C123.648 52.6993 123.934 53.8414 123.99 55.0061C124.047 56.1708 123.873 57.3352 123.479 58.4326C123.084 59.53 122.478 60.5389 121.693 61.4014C120.824 62.3816 119.75 63.1572 118.546 63.6726C117.342 64.1879 116.039 64.4302 114.731 64.3819Z" fill="white"/>
</svg>
