<svg width="20" height="20" viewBox="0 0 20 20" fill="none" xmlns="http://www.w3.org/2000/svg">
<g clip-path="url(#clip0_169_13263)">
<path d="M12.7078 11.6665C12.542 11.6665 12.3831 11.7324 12.2659 11.8496C12.1487 11.9668 12.0828 12.1258 12.0828 12.2915C12.0828 12.4573 12.1487 12.6163 12.2659 12.7335C12.3831 12.8507 12.542 12.9165 12.7078 12.9165H15.6244C15.7902 12.9165 15.9492 12.8507 16.0664 12.7335C16.1836 12.6163 16.2494 12.4573 16.2494 12.2915C16.2494 12.1258 16.1836 11.9668 16.0664 11.8496C15.9492 11.7324 15.7902 11.6665 15.6244 11.6665H12.7078Z" fill="#7519EB"/>
<path fill-rule="evenodd" clip-rule="evenodd" d="M1.45832 2.49998C1.07155 2.49998 0.700619 2.65362 0.427132 2.92711C0.153644 3.2006 0 3.57152 0 3.95829L0 16.0415C0 16.8465 0.653327 17.4998 1.45832 17.4998H18.5415C18.9282 17.4998 19.2992 17.3462 19.5727 17.0727C19.8462 16.7992 19.9998 16.4283 19.9998 16.0415V3.95829C19.9998 3.57152 19.8462 3.2006 19.5727 2.92711C19.2992 2.65362 18.9282 2.49998 18.5415 2.49998H1.45832ZM1.24999 3.95829C1.24999 3.90304 1.27194 3.85005 1.31101 3.81098C1.35008 3.77191 1.40307 3.74996 1.45832 3.74996H18.5415C18.5967 3.74996 18.6497 3.77191 18.6888 3.81098C18.7279 3.85005 18.7498 3.90304 18.7498 3.95829V7.08326H1.24999V3.95829ZM1.24999 8.33325V16.0415C1.24999 16.1565 1.34332 16.2498 1.45832 16.2498H18.5415C18.5967 16.2498 18.6497 16.2279 18.6888 16.1888C18.7279 16.1497 18.7498 16.0968 18.7498 16.0415V8.33325H1.24999Z" fill="#7519EB"/>
</g>
<defs>
<clipPath id="clip0_169_13263">
<rect width="19.2" height="19.2" fill="white" transform="scale(1.04166)"/>
</clipPath>
</defs>
</svg>
