<svg width="20" height="20" viewBox="0 0 20 20" fill="none" xmlns="http://www.w3.org/2000/svg">
<path fill-rule="evenodd" clip-rule="evenodd" d="M18.75 10.0001C18.75 9.8343 18.6842 9.67533 18.5669 9.55812C18.4497 9.44091 18.2908 9.37506 18.125 9.37506H3.38375L7.3175 5.44256C7.43486 5.3252 7.50079 5.16603 7.50079 5.00006C7.50079 4.83409 7.43486 4.67492 7.3175 4.55756C7.20014 4.4402 7.04097 4.37427 6.875 4.37427C6.70903 4.37427 6.54986 4.4402 6.4325 4.55756L1.4325 9.55756C1.3743 9.61561 1.32812 9.68458 1.29661 9.76052C1.2651 9.83645 1.24888 9.91785 1.24888 10.0001C1.24888 10.0823 1.2651 10.1637 1.29661 10.2396C1.32812 10.3155 1.3743 10.3845 1.4325 10.4426L6.4325 15.4426C6.54986 15.5599 6.70903 15.6258 6.875 15.6258C7.04097 15.6258 7.20014 15.5599 7.3175 15.4426C7.43486 15.3252 7.50079 15.166 7.50079 15.0001C7.50079 14.8341 7.43486 14.6749 7.3175 14.5576L3.38375 10.6251H18.125C18.2908 10.6251 18.4497 10.5592 18.5669 10.442C18.6842 10.3248 18.75 10.1658 18.75 10.0001Z" fill="#1D1D1F"/>
</svg>
