<svg width="20" height="20" viewBox="0 0 20 20" fill="none" xmlns="http://www.w3.org/2000/svg">
<path d="M17.917 3.33333H16.1115V4.44445H17.7781V16.6667H2.22258V4.44445H3.88925V3.33333H2.08369C1.95382 3.3355 1.82566 3.36324 1.70651 3.41495C1.58736 3.46666 1.47957 3.54134 1.38928 3.63472C1.299 3.7281 1.228 3.83834 1.18033 3.95917C1.13266 4.07999 1.10926 4.20902 1.11147 4.33889V16.7722C1.10926 16.9021 1.13266 17.0311 1.18033 17.1519C1.228 17.2728 1.299 17.383 1.38928 17.4764C1.47957 17.5698 1.58736 17.6445 1.70651 17.6962C1.82566 17.7479 1.95382 17.7756 2.08369 17.7778H17.917C18.0469 17.7756 18.1751 17.7479 18.2942 17.6962C18.4134 17.6445 18.5212 17.5698 18.6114 17.4764C18.7017 17.383 18.7727 17.2728 18.8204 17.1519C18.8681 17.0311 18.8915 16.9021 18.8892 16.7722V4.33889C18.8915 4.20902 18.8681 4.07999 18.8204 3.95917C18.7727 3.83834 18.7017 3.7281 18.6114 3.63472C18.5212 3.54134 18.4134 3.46666 18.2942 3.41495C18.1751 3.36324 18.0469 3.3355 17.917 3.33333Z" fill="#A5A8B0"/>
<path d="M4.44434 7.77778H5.55545V8.88889H4.44434V7.77778Z" fill="#A5A8B0"/>
<path d="M7.77734 7.77778H8.88846V8.88889H7.77734V7.77778Z" fill="#A5A8B0"/>
<path d="M11.1113 7.77778H12.2224V8.88889H11.1113V7.77778Z" fill="#A5A8B0"/>
<path d="M14.4443 7.77778H15.5554V8.88889H14.4443V7.77778Z" fill="#A5A8B0"/>
<path d="M4.44434 10.5556H5.55545V11.6667H4.44434V10.5556Z" fill="#A5A8B0"/>
<path d="M7.77734 10.5556H8.88846V11.6667H7.77734V10.5556Z" fill="#A5A8B0"/>
<path d="M11.1113 10.5556H12.2224V11.6667H11.1113V10.5556Z" fill="#A5A8B0"/>
<path d="M14.4443 10.5556H15.5554V11.6667H14.4443V10.5556Z" fill="#A5A8B0"/>
<path d="M4.44434 13.3333H5.55545V14.4444H4.44434V13.3333Z" fill="#A5A8B0"/>
<path d="M7.77734 13.3333H8.88846V14.4444H7.77734V13.3333Z" fill="#A5A8B0"/>
<path d="M11.1113 13.3333H12.2224V14.4444H11.1113V13.3333Z" fill="#A5A8B0"/>
<path d="M14.4443 13.3333H15.5554V14.4444H14.4443V13.3333Z" fill="#A5A8B0"/>
<path d="M5.55556 5.55556C5.7029 5.55556 5.84421 5.49702 5.94839 5.39284C6.05258 5.28865 6.11111 5.14734 6.11111 5V1.66667C6.11111 1.51932 6.05258 1.37802 5.94839 1.27383C5.84421 1.16964 5.7029 1.11111 5.55556 1.11111C5.40821 1.11111 5.26691 1.16964 5.16272 1.27383C5.05853 1.37802 5 1.51932 5 1.66667V5C5 5.14734 5.05853 5.28865 5.16272 5.39284C5.26691 5.49702 5.40821 5.55556 5.55556 5.55556Z" fill="#A5A8B0"/>
<path d="M14.4442 5.55556C14.5916 5.55556 14.7329 5.49702 14.8371 5.39284C14.9413 5.28865 14.9998 5.14734 14.9998 5V1.66667C14.9998 1.51932 14.9413 1.37802 14.8371 1.27383C14.7329 1.16964 14.5916 1.11111 14.4442 1.11111C14.2969 1.11111 14.1556 1.16964 14.0514 1.27383C13.9472 1.37802 13.8887 1.51932 13.8887 1.66667V5C13.8887 5.14734 13.9472 5.28865 14.0514 5.39284C14.1556 5.49702 14.2969 5.55556 14.4442 5.55556Z" fill="#A5A8B0"/>
<path d="M7.22266 3.33333H12.7782V4.44445H7.22266V3.33333Z" fill="#A5A8B0"/>
</svg>
