<svg width="20" height="20" viewBox="0 0 20 20" fill="none" xmlns="http://www.w3.org/2000/svg">
<g clip-path="url(#clip0_103_13748)">
<path d="M3.47245 6.38889L6.6669 7.31111L10.178 4.76111L5.13912 4.90555C5.08979 4.90825 5.04197 4.92355 5.00023 4.95L3.40579 5.86666C3.35619 5.89414 3.31598 5.93587 3.29035 5.98645C3.26473 6.03703 3.25487 6.09414 3.26205 6.15038C3.26923 6.20662 3.29312 6.25942 3.33063 6.30194C3.36814 6.34446 3.41754 6.37475 3.47245 6.38889Z" fill="#A5A8B0"/>
<path d="M19.1783 3.53334L15.6783 2.77778C15.3839 2.71388 15.0793 2.71405 14.785 2.77827C14.4907 2.8425 14.2137 2.96928 13.9727 3.15001L3.40048 10.8333L0.861595 10.7222C0.71617 10.7173 0.572866 10.7581 0.451918 10.839C0.330969 10.9199 0.238487 11.0368 0.18753 11.1731C0.136573 11.3094 0.129716 11.4582 0.167927 11.5986C0.206137 11.739 0.287485 11.8639 0.400484 11.9556L2.87271 13.9167C2.91341 13.9495 2.96185 13.9713 3.0134 13.9801C3.06496 13.9889 3.11789 13.9842 3.16715 13.9667C3.87271 13.6944 6.50049 12.3 9.60604 10.5944L10.2283 16.9889C10.2335 17.0443 10.2538 17.0972 10.287 17.1419C10.3201 17.1865 10.3648 17.2213 10.4163 17.2425C10.4677 17.2636 10.524 17.2704 10.5789 17.2619C10.6339 17.2534 10.6856 17.2301 10.7283 17.1945L12.1172 16.0389C12.1932 15.9751 12.2443 15.8866 12.2616 15.7889L13.5783 8.40556C15.8005 7.17223 17.9227 5.97778 19.4172 5.13334C19.5722 5.04895 19.6976 4.91893 19.7764 4.76088C19.8551 4.60284 19.8833 4.42442 19.8572 4.2498C19.8312 4.07517 19.752 3.91278 19.6306 3.78463C19.5091 3.65647 19.3512 3.56875 19.1783 3.53334Z" fill="#A5A8B0"/>
</g>
<defs>
<clipPath id="clip0_103_13748">
<rect width="20" height="20" fill="white"/>
</clipPath>
</defs>
</svg>
