<svg width="20" height="20" viewBox="0 0 20 20" fill="none" xmlns="http://www.w3.org/2000/svg">
<path fill-rule="evenodd" clip-rule="evenodd" d="M18.75 10C18.75 9.83424 18.6842 9.67526 18.5669 9.55805C18.4497 9.44084 18.2908 9.375 18.125 9.375H3.38375L7.3175 5.4425C7.43486 5.32514 7.50079 5.16597 7.50079 5C7.50079 4.83403 7.43486 4.67485 7.3175 4.5575C7.20014 4.44014 7.04097 4.37421 6.875 4.37421C6.70903 4.37421 6.54986 4.44014 6.4325 4.5575L1.4325 9.5575C1.3743 9.61555 1.32812 9.68452 1.29661 9.76045C1.2651 9.83639 1.24888 9.91779 1.24888 10C1.24888 10.0822 1.2651 10.1636 1.29661 10.2395C1.32812 10.3155 1.3743 10.3844 1.4325 10.4425L6.4325 15.4425C6.54986 15.5599 6.70903 15.6258 6.875 15.6258C7.04097 15.6258 7.20014 15.5599 7.3175 15.4425C7.43486 15.3251 7.50079 15.166 7.50079 15C7.50079 14.834 7.43486 14.6749 7.3175 14.5575L3.38375 10.625H18.125C18.2908 10.625 18.4497 10.5591 18.5669 10.4419C18.6842 10.3247 18.75 10.1658 18.75 10Z" fill="#51535E"/>
</svg>
