<svg width="24" height="24" viewBox="0 0 24 24" fill="none" xmlns="http://www.w3.org/2000/svg">
<g clip-path="url(#clip0_103_14692)">
<path d="M9.98959 22.7499C9.78959 22.7499 9.62959 22.7099 9.50959 22.6599C9.10959 22.5099 8.42959 22.0199 8.42959 20.4699V14.0199H6.08959C4.74959 14.0199 4.26959 13.3899 4.09959 13.0199C3.92959 12.6399 3.77959 11.8699 4.65959 10.8599L12.2296 2.25988C13.2496 1.09988 14.0796 1.17988 14.4796 1.32988C14.8796 1.47988 15.5596 1.96988 15.5596 3.51988V9.96988H17.8996C19.2396 9.96988 19.7196 10.5999 19.8896 10.9699C20.0596 11.3499 20.2096 12.1199 19.3296 13.1299L11.7596 21.7299C11.0496 22.5399 10.4296 22.7499 9.98959 22.7499ZM13.9296 2.73988C13.8996 2.77988 13.6896 2.87988 13.3596 3.25988L5.78959 11.8599C5.50959 12.1799 5.46959 12.3799 5.46959 12.4199C5.48959 12.4299 5.66959 12.5299 6.08959 12.5299H9.17959C9.58959 12.5299 9.92959 12.8699 9.92959 13.2799V20.4799C9.92959 20.9799 10.0196 21.1999 10.0596 21.2599C10.0896 21.2199 10.2996 21.1199 10.6296 20.7399L18.1996 12.1399C18.4796 11.8199 18.5196 11.6199 18.5196 11.5799C18.4996 11.5699 18.3196 11.4699 17.8996 11.4699H14.8096C14.3996 11.4699 14.0596 11.1299 14.0596 10.7199V3.51988C14.0696 3.01988 13.9696 2.80988 13.9296 2.73988Z" fill="#51535E"/>
</g>
<defs>
<clipPath id="clip0_103_14692">
<rect width="24" height="24" fill="white"/>
</clipPath>
</defs>
</svg>
