<svg width="20" height="20" viewBox="0 0 20 20" fill="none" xmlns="http://www.w3.org/2000/svg">
<path d="M10.0002 13.3333C12.1669 13.3333 13.8891 11.6111 13.8891 9.44445V5C13.8891 2.83334 12.1669 1.11111 10.0002 1.11111C7.83355 1.11111 6.11133 2.83334 6.11133 5V9.44445C6.11133 11.6111 7.83355 13.3333 10.0002 13.3333ZM7.22244 5C7.22244 3.44445 8.44466 2.22223 10.0002 2.22223C11.5558 2.22223 12.778 3.44445 12.778 5V9.44445C12.778 11 11.5558 12.2222 10.0002 12.2222C8.44466 12.2222 7.22244 11 7.22244 9.44445V5Z" fill="#51535E"/>
<path d="M16.6663 9.44444H15.5552C15.5552 12.5 13.0552 15 9.99967 15C6.94412 15 4.44412 12.5 4.44412 9.44444H3.33301C3.33301 12.9444 5.99967 15.7778 9.44412 16.0556V17.7778H7.77745C7.44412 17.7778 7.2219 18 7.2219 18.3333C7.2219 18.6667 7.44412 18.8889 7.77745 18.8889H12.2219C12.5552 18.8889 12.7775 18.6667 12.7775 18.3333C12.7775 18 12.5552 17.7778 12.2219 17.7778H10.5552V16.0556C13.9997 15.7778 16.6663 12.9444 16.6663 9.44444Z" fill="#51535E"/>
</svg>
