<svg width="62" height="31" viewBox="0 0 62 31" fill="none" xmlns="http://www.w3.org/2000/svg">
<path d="M57.2627 30.9985C56.2308 30.9671 55.2422 30.5848 54.4684 29.9179L31.4213 9.88374L7.10737 27.6992C6.64413 28.0419 6.11577 28.292 5.55266 28.4349C4.98955 28.5779 4.4028 28.611 3.82612 28.5324C3.24944 28.4538 2.69421 28.2649 2.19234 27.9767C1.69047 27.6885 1.25185 27.3066 0.901708 26.8529C0.549103 26.4011 0.291527 25.886 0.143782 25.3373C-0.00396274 24.7885 -0.0389616 24.2169 0.0407971 23.6553C0.120556 23.0937 0.313499 22.5532 0.608538 22.0648C0.903576 21.5764 1.29489 21.1498 1.75999 20.8095L28.9268 0.890275C29.7374 0.28316 30.7397 -0.0306748 31.7625 0.00236289C32.7854 0.0354006 33.7653 0.413262 34.5351 1.07142L60.3362 23.4335C60.7717 23.8091 61.127 24.2645 61.3817 24.7736C61.6365 25.2828 61.7857 25.8358 61.8208 26.4009C61.856 26.966 61.7763 27.5321 61.5864 28.0668C61.3966 28.6015 61.1002 29.0942 60.7144 29.5168C60.2875 29.997 59.7566 30.3789 59.1598 30.635C58.5629 30.8912 57.9151 31.0153 57.2627 30.9985Z" fill="white"/>
</svg>
