<svg width="38" height="24" viewBox="0 0 38 24" fill="none" xmlns="http://www.w3.org/2000/svg">
<g clip-path="url(#clip0_240_9088)">
<path d="M34.597 0H3.40308C3.27316 0 3.14301 0 3.01332 0.000747416C2.9037 0.00151748 2.79433 0.00271788 2.68496 0.00566224C2.44642 0.0120266 2.20585 0.0259104 1.9703 0.0676751C1.73099 0.110165 1.5083 0.17947 1.29105 0.288593C1.07747 0.395745 0.881941 0.535897 0.712492 0.703137C0.542969 0.870377 0.400907 1.06296 0.292316 1.27389C0.181683 1.48822 0.111386 1.70798 0.0686154 1.94426C0.0260539 2.1767 0.0118866 2.41399 0.00545845 2.64907C0.00251985 2.75697 0.00125947 2.86487 0.000545477 2.97274C-0.00021213 3.10096 4.04057e-05 3.22909 4.04057e-05 3.35753V20.6427C4.04057e-05 20.7712 -0.00021213 20.8991 0.000545477 21.0275C0.00125947 21.1354 0.00251985 21.2433 0.00545845 21.3512C0.0118866 21.5861 0.0260539 21.8234 0.0686154 22.0557C0.111386 22.2921 0.181683 22.5118 0.292316 22.7261C0.400907 22.9371 0.542969 23.1299 0.712492 23.2969C0.881941 23.4644 1.07747 23.6045 1.29105 23.7114C1.5083 23.8208 1.73099 23.8902 1.9703 23.9326C2.20585 23.9741 2.44642 23.9882 2.68496 23.9946C2.79433 23.9971 2.9037 23.9985 3.01332 23.999C3.14301 24 3.27316 24 3.40308 24H34.597C34.7267 24 34.8568 24 34.9865 23.999C35.0958 23.9985 35.2052 23.9971 35.3151 23.9946C35.5531 23.9882 35.7936 23.9741 36.0298 23.9326C36.2688 23.8902 36.4915 23.8208 36.7088 23.7114C36.9226 23.6045 37.1175 23.4644 37.2873 23.2969C37.4566 23.1299 37.5986 22.9371 37.7075 22.7261C37.8184 22.5118 37.8886 22.2921 37.9312 22.0557C37.9738 21.8234 37.9876 21.5861 37.994 21.3512C37.997 21.2433 37.9985 21.1354 37.999 21.0275C38 20.8991 38 20.7712 38 20.6427V3.35753C38 3.22909 38 3.10096 37.999 2.97274C37.9985 2.86487 37.997 2.75697 37.994 2.64907C37.9876 2.41399 37.9738 2.1767 37.9312 1.94426C37.8886 1.70798 37.8184 1.48822 37.7075 1.27389C37.5986 1.06296 37.4566 0.870377 37.2873 0.703137C37.1175 0.535897 36.9226 0.395745 36.7088 0.288593C36.4915 0.17947 36.2688 0.110165 36.0298 0.0676751C35.7936 0.0259104 35.5531 0.0120266 35.3151 0.00566224C35.2052 0.00271788 35.0958 0.00151748 34.9865 0.000747416C34.8568 0 34.7267 0 34.597 0Z" fill="#51535E"/>
<path d="M34.5966 0.799988L34.9804 0.800713C35.0843 0.801437 35.1883 0.802547 35.2928 0.805356C35.4746 0.810202 35.6873 0.819919 35.8856 0.854979C36.0579 0.885601 36.2025 0.932167 36.3412 1.00184C36.4781 1.07048 36.6036 1.16045 36.7132 1.26837C36.8231 1.37702 36.9144 1.501 36.9849 1.63759C37.0552 1.77337 37.1021 1.91529 37.1329 2.08656C37.1684 2.28003 37.1782 2.49044 37.1831 2.67093C37.1859 2.7728 37.1873 2.87468 37.1878 2.97898C37.1888 3.10511 37.1888 3.23117 37.1888 3.35755V20.6427C37.1888 20.7691 37.1888 20.895 37.1878 21.0238C37.1873 21.1256 37.1859 21.2275 37.1831 21.3296C37.1782 21.5098 37.1684 21.7201 37.1325 21.9158C37.1021 22.0848 37.0552 22.2267 36.9846 22.3632C36.9143 22.4994 36.8231 22.6233 36.7136 22.7312C36.6034 22.8399 36.4784 22.9296 36.3398 22.9989C36.2021 23.0682 36.0578 23.1148 35.8872 23.1451C35.6849 23.1806 35.4633 23.1904 35.2964 23.1949C35.1914 23.1972 35.0869 23.1986 34.9798 23.1991C34.8523 23.2001 34.7242 23.2001 34.5966 23.2001H3.40274C3.40104 23.2001 3.39938 23.2001 3.39766 23.2001C3.27153 23.2001 3.14515 23.2001 3.01672 23.1991C2.91201 23.1986 2.80753 23.1972 2.70652 23.195C2.5358 23.1904 2.31405 23.1807 2.11343 23.1453C1.94131 23.1148 1.79702 23.0682 1.65753 22.998C1.52027 22.9293 1.39531 22.8397 1.28508 22.7308C1.17571 22.6231 1.08482 22.4996 1.01455 22.3632C0.944207 22.2269 0.897144 22.0845 0.866199 21.9136C0.830428 21.7182 0.820602 21.5087 0.815692 21.3297C0.812889 21.2272 0.811718 21.1248 0.811052 21.0229L0.810547 20.7222L0.81057 20.6427V3.35755L0.810547 3.27815L0.811029 2.97803C0.811718 2.87554 0.812889 2.77308 0.815692 2.67068C0.820602 2.4915 0.830428 2.28195 0.866495 2.08495C0.897167 1.91556 0.944207 1.77319 1.01492 1.63619C1.08464 1.50077 1.17569 1.37715 1.28564 1.26871C1.39515 1.16063 1.52052 1.07078 1.65865 1.00147C1.79665 0.932144 1.94122 0.885601 2.11333 0.855047C2.31164 0.819896 2.52448 0.810202 2.70677 0.805333C2.81068 0.802547 2.91458 0.801437 3.01771 0.800735L3.40274 0.799988H34.5966Z" fill="white"/>
<path d="M10.3741 8.0722C10.6995 7.67071 10.9203 7.13163 10.8621 6.58075C10.3858 6.60411 9.80454 6.89075 9.46805 7.29255C9.16591 7.63664 8.89849 8.19829 8.9682 8.72607C9.50286 8.77183 10.037 8.46242 10.3741 8.0722Z" fill="#51535E"/>
<path d="M10.8553 8.82911C10.0789 8.78348 9.41868 9.26386 9.04789 9.26386C8.67688 9.26386 8.10907 8.8521 7.49493 8.8632C6.6956 8.87478 5.9539 9.32065 5.54827 10.0298C4.71396 11.4484 5.3281 13.5528 6.13942 14.7082C6.53342 15.2798 7.00825 15.9092 7.63392 15.8866C8.22507 15.8637 8.45678 15.5089 9.17534 15.5089C9.89338 15.5089 10.1021 15.8866 10.7279 15.8751C11.3768 15.8637 11.7825 15.3032 12.1765 14.7311C12.6285 14.0795 12.8135 13.4503 12.8252 13.4157C12.8135 13.4043 11.5738 12.9351 11.5623 11.5283C11.5506 10.3503 12.5356 9.78998 12.582 9.75523C12.0257 8.94361 11.1566 8.8521 10.8553 8.82911Z" fill="#51535E"/>
<path d="M17.6163 7.23493C19.3039 7.23493 20.4791 8.38257 20.4791 10.0534C20.4791 11.7303 19.2797 12.8839 17.574 12.8839H15.7055V15.8154H14.3555V7.23492H17.6163V7.23493ZM15.7055 11.766H17.2545C18.4299 11.766 19.0988 11.1417 19.0988 10.0594C19.0988 8.97726 18.4299 8.35883 17.2606 8.35883H15.7055V11.766Z" fill="#51535E"/>
<path d="M20.832 14.0375C20.832 12.9433 21.6819 12.2714 23.1888 12.1881L24.9246 12.0871V11.6055C24.9246 10.9097 24.4484 10.4935 23.6529 10.4935C22.8994 10.4935 22.4292 10.8502 22.3148 11.4092H21.0852C21.1576 10.2794 22.1339 9.4469 23.7011 9.4469C25.238 9.4469 26.2204 10.2497 26.2204 11.5043V15.8154H24.9727V14.7867H24.9427C24.5751 15.4824 23.7734 15.9224 22.9417 15.9224C21.7 15.9224 20.832 15.1612 20.832 14.0375ZM24.9246 13.4726V12.9791L23.3635 13.0741C22.5859 13.1277 22.146 13.4666 22.146 14.0018C22.146 14.5488 22.6041 14.9056 23.3032 14.9056C24.2133 14.9056 24.9246 14.2872 24.9246 13.4726Z" fill="#51535E"/>
<path d="M27.3984 18.1167V17.076C27.4946 17.0998 27.7116 17.0998 27.8201 17.0998C28.4228 17.0998 28.7484 16.8501 28.9472 16.2079C28.9472 16.196 29.0618 15.8273 29.0618 15.8214L26.7715 9.55994H28.1817L29.7852 14.65H29.8091L31.4126 9.55994H32.7867L30.4118 16.1424C29.8696 17.6588 29.2427 18.1464 27.9287 18.1464C27.8201 18.1464 27.4946 18.1344 27.3984 18.1167Z" fill="#51535E"/>
</g>
<defs>
<clipPath id="clip0_240_9088">
<rect width="38" height="24" fill="white"/>
</clipPath>
</defs>
</svg>
