<svg width="20" height="20" viewBox="0 0 20 20" fill="none" xmlns="http://www.w3.org/2000/svg">
<path fill-rule="evenodd" clip-rule="evenodd" d="M3.3335 13.8094V6.89136C3.33351 6.53756 3.43207 6.19075 3.61811 5.88982C3.80416 5.58888 4.07034 5.34571 4.38683 5.18757L9.14868 2.80664C9.41306 2.67453 9.70455 2.60575 10.0001 2.60575C10.2956 2.60575 10.5871 2.67453 10.8515 2.80664L15.6134 5.18757C15.93 5.34579 16.1963 5.58911 16.3823 5.89022C16.5684 6.19134 16.6669 6.53835 16.6667 6.89231V13.8094C16.6667 14.3146 16.466 14.799 16.1088 15.1562C15.7516 15.5134 15.2671 15.7141 14.762 15.7141H5.23825C4.73308 15.7141 4.2486 15.5134 3.89139 15.1562C3.53418 14.799 3.3335 14.3146 3.3335 13.8094Z" stroke="#7519EB" stroke-linecap="round" stroke-linejoin="round"/>
<path d="M5.23778 7.14276L10.0177 9.99988L14.7615 7.14276" stroke="#7519EB" stroke-linecap="round" stroke-linejoin="round"/>
</svg>
