<svg width="55" height="42" viewBox="0 0 55 42" fill="none" xmlns="http://www.w3.org/2000/svg">
<path d="M0 4.79999C0 3.11984 0 2.27976 0.32698 1.63803C0.614601 1.07354 1.07354 0.614601 1.63803 0.32698C2.27976 0 3.11984 0 4.8 0H50.2C51.8802 0 52.7202 0 53.362 0.32698C53.9265 0.614601 54.3854 1.07354 54.673 1.63803C55 2.27976 55 3.11984 55 4.8V30.7932C55 32.4734 55 33.3135 54.673 33.9552C54.3854 34.5197 53.9265 34.9786 53.362 35.2662C52.7202 35.5932 51.8802 35.5932 50.2 35.5932H40.506C40.0513 35.5932 39.8239 35.5932 39.602 35.6266C39.4048 35.6563 39.2112 35.7055 39.0238 35.7736C38.8128 35.8503 38.6131 35.9589 38.2136 36.176L29.6262 40.8442C28.8468 41.2678 28.4572 41.4797 28.0441 41.5711C27.6783 41.652 27.3005 41.6637 26.9304 41.6055C26.5125 41.5399 26.1105 41.3525 25.3064 40.9779L14.7139 36.0423C14.3542 35.8747 14.1743 35.7909 13.9869 35.7319C13.8204 35.6794 13.6497 35.6416 13.4767 35.6189C13.2819 35.5932 13.0835 35.5932 12.6866 35.5932H4.8C3.11984 35.5932 2.27976 35.5932 1.63803 35.2662C1.07354 34.9786 0.614601 34.5197 0.32698 33.9552C0 33.3135 0 32.4734 0 30.7932V4.79999Z" fill="#45EA69"/>
</svg>
