<svg width="14" height="14" viewBox="0 0 14 14" fill="none" xmlns="http://www.w3.org/2000/svg">
<path d="M12.4151 4.82753L8.94385 4.32304L7.39209 1.17714C7.34971 1.09101 7.27998 1.02128 7.19385 0.978899C6.97783 0.872258 6.71533 0.961126 6.60732 1.17714L5.05556 4.32304L1.58428 4.82753C1.48857 4.8412 1.40107 4.88632 1.33408 4.95468C1.25309 5.03792 1.20846 5.14992 1.21 5.26605C1.21154 5.38218 1.25912 5.49295 1.34228 5.57402L3.85381 8.02265L3.26045 11.4803C3.24653 11.5607 3.25543 11.6434 3.28614 11.7191C3.31685 11.7947 3.36813 11.8602 3.43417 11.9082C3.50022 11.9561 3.57838 11.9846 3.6598 11.9904C3.74122 11.9962 3.82264 11.9791 3.89482 11.941L6.9997 10.3086L10.1046 11.941C10.1894 11.9861 10.2878 12.0012 10.3821 11.9848C10.62 11.9437 10.78 11.7182 10.739 11.4803L10.1456 8.02265L12.6571 5.57402C12.7255 5.50702 12.7706 5.41952 12.7843 5.32382C12.8212 5.08456 12.6544 4.86308 12.4151 4.82753Z" fill="#7519EB"/>
</svg>
