<svg width="20" height="20" viewBox="0 0 20 20" fill="none" xmlns="http://www.w3.org/2000/svg">
<path d="M10.0004 13.3333C9.80568 13.3337 9.61699 13.2658 9.46706 13.1416L4.46706 8.97495C4.29688 8.8335 4.18986 8.63024 4.16954 8.40988C4.14923 8.18953 4.21728 7.97013 4.35873 7.79994C4.50017 7.62976 4.70343 7.52274 4.92379 7.50243C5.14414 7.48211 5.36355 7.55016 5.53373 7.69161L10.0004 11.4249L14.4671 7.82495C14.5523 7.75572 14.6504 7.70403 14.7557 7.67284C14.8609 7.64164 14.9714 7.63157 15.0805 7.64318C15.1897 7.6548 15.2956 7.68788 15.3919 7.74052C15.4883 7.79317 15.5733 7.86434 15.6421 7.94994C15.7184 8.03563 15.7762 8.13615 15.8118 8.24521C15.8475 8.35427 15.8603 8.46952 15.8493 8.58374C15.8383 8.69796 15.8039 8.80869 15.7482 8.90899C15.6925 9.00928 15.6166 9.09699 15.5254 9.16661L10.5254 13.1916C10.3712 13.2962 10.1863 13.3461 10.0004 13.3333Z" fill="#A5A8B0"/>
</svg>
