<svg width="16" height="16" viewBox="0 0 16 16" fill="none" xmlns="http://www.w3.org/2000/svg">
<g clip-path="url(#clip0_0_67)">
<path d="M14.222 2.66663H1.77756C1.54181 2.66663 1.31572 2.76028 1.14902 2.92698C0.982322 3.09367 0.888672 3.31977 0.888672 3.55551V12.4444C0.888672 12.6802 0.982322 12.9062 1.14902 13.0729C1.31572 13.2396 1.54181 13.3333 1.77756 13.3333H14.222C14.4578 13.3333 14.6838 13.2396 14.8505 13.0729C15.0172 12.9062 15.1109 12.6802 15.1109 12.4444V3.55551C15.1109 3.31977 15.0172 3.09367 14.8505 2.92698C14.6838 2.76028 14.4578 2.66663 14.222 2.66663ZM14.222 3.55551V8.88885H1.77756V3.55551H14.222ZM1.77756 12.4444V10.6666H14.222V12.4444H1.77756Z" fill="#A5A8B0"/>
</g>
<defs>
<clipPath id="clip0_0_67">
<rect width="16" height="16" fill="white"/>
</clipPath>
</defs>
</svg>
