<svg width="31" height="14" viewBox="0 0 31 14" fill="none" xmlns="http://www.w3.org/2000/svg">
<g clip-path="url(#clip0_103_13607)">
<path d="M25.5896 13.4943C25.1843 13.4738 24.799 13.3121 24.5005 13.0372L15.6117 4.78029L5.90577 11.7845C5.72082 11.9192 5.51106 12.0161 5.28854 12.0696C5.06603 12.123 4.83515 12.1319 4.60917 12.0958C4.38319 12.0597 4.16657 11.9794 3.97176 11.8593C3.77695 11.7392 3.60779 11.5818 3.47401 11.3962C3.33924 11.2112 3.24236 11.0014 3.18892 10.7789C3.13549 10.5564 3.12656 10.3255 3.16264 10.0996C3.19873 9.87358 3.27912 9.65696 3.39919 9.46215C3.51926 9.26734 3.67665 9.09818 3.86232 8.9644L14.7073 1.13298C15.0309 0.894155 15.4275 0.775105 15.8292 0.796157C16.2309 0.81721 16.6129 0.97706 16.9098 1.24841L26.8613 10.4654C27.0293 10.6202 27.1651 10.8066 27.2609 11.0139C27.3567 11.2213 27.4107 11.4455 27.4198 11.6738C27.4288 11.902 27.3927 12.1298 27.3136 12.3441C27.2345 12.5584 27.1138 12.755 26.9586 12.9226C26.7868 13.1131 26.5749 13.2631 26.3382 13.362C26.1015 13.4608 25.8458 13.506 25.5896 13.4943Z" fill="white"/>
</g>
<defs>
<clipPath id="clip0_103_13607">
<rect width="30" height="12" fill="white" transform="translate(0.637379) scale(1.01347) rotate(3)"/>
</clipPath>
</defs>
</svg>
