<svg width="16" height="385" viewBox="0 0 16 385" fill="none" xmlns="http://www.w3.org/2000/svg">
<path d="M7.50002 378C7.50002 378.276 7.72387 378.5 8.00002 378.5C8.27616 378.5 8.50002 378.276 8.50002 378L7.50002 378ZM7.5 9L7.5 11.4932L8.5 11.4932L8.5 9L7.5 9ZM7.5 16.4797L7.5 21.4662L8.5 21.4662L8.5 16.4797L7.5 16.4797ZM7.5 26.4527L7.5 31.4392L8.5 31.4392L8.5 26.4527L7.5 26.4527ZM7.5 36.4257L7.5 41.4122L8.5 41.4122L8.5 36.4257L7.5 36.4257ZM7.5 46.3986L7.5 51.3851L8.5 51.3851L8.5 46.3986L7.5 46.3986ZM7.5 56.3716L7.5 61.3581L8.5 61.3581L8.5 56.3716L7.5 56.3716ZM7.5 66.3446L7.5 71.3311L8.5 71.3311L8.5 66.3446L7.5 66.3446ZM7.5 76.3176L7.5 81.304L8.5 81.304L8.5 76.3176L7.5 76.3176ZM7.5 86.2905L7.5 91.277L8.5 91.277L8.5 86.2905L7.5 86.2905ZM7.5 96.2635L7.5 101.25L8.5 101.25L8.5 96.2635L7.5 96.2635ZM7.5 106.236L7.5 111.223L8.5 111.223L8.5 106.236L7.5 106.236ZM7.5 116.209L7.5 121.196L8.5 121.196L8.5 116.209L7.5 116.209ZM7.50001 126.182L7.50001 131.169L8.50001 131.169L8.50001 126.182L7.50001 126.182ZM7.50001 136.155L7.50001 141.142L8.50001 141.142L8.50001 136.155L7.50001 136.155ZM7.50001 146.128L7.50001 151.115L8.50001 151.115L8.50001 146.128L7.50001 146.128ZM7.50001 156.101L7.50001 161.088L8.50001 161.088L8.50001 156.101L7.50001 156.101ZM7.50001 166.074L7.50001 171.061L8.50001 171.061L8.50001 166.074L7.50001 166.074ZM7.50001 176.047L7.50001 181.034L8.50001 181.034L8.50001 176.047L7.50001 176.047ZM7.50001 186.02L7.50001 191.007L8.50001 191.007L8.50001 186.02L7.50001 186.02ZM7.50001 195.993L7.50001 200.98L8.50001 200.98L8.50001 195.993L7.50001 195.993ZM7.50001 205.966L7.50001 210.953L8.50001 210.953L8.50001 205.966L7.50001 205.966ZM7.50001 215.939L7.50001 220.926L8.50001 220.926L8.50001 215.939L7.50001 215.939ZM7.50001 225.912L7.50001 230.899L8.50001 230.899L8.50001 225.912L7.50001 225.912ZM7.50001 235.885L7.50001 240.872L8.50001 240.872L8.50001 235.885L7.50001 235.885ZM7.50001 245.858L7.50001 250.844L8.50001 250.844L8.50001 245.858L7.50001 245.858ZM7.50001 255.831L7.50001 260.817L8.50001 260.817L8.50001 255.831L7.50001 255.831ZM7.50001 265.804L7.50001 270.79L8.50001 270.79L8.50001 265.804L7.50001 265.804ZM7.50001 275.777L7.50001 280.763L8.50001 280.763L8.50001 275.777L7.50001 275.777ZM7.50001 285.75L7.50001 290.736L8.50001 290.736L8.50001 285.75L7.50001 285.75ZM7.50001 295.723L7.50001 300.709L8.50001 300.709L8.50001 295.723L7.50001 295.723ZM7.50001 305.696L7.50001 310.682L8.50001 310.682L8.50001 305.696L7.50001 305.696ZM7.50001 315.669L7.50001 320.655L8.50001 320.655L8.50001 315.669L7.50001 315.669ZM7.50001 325.642L7.50001 330.628L8.50001 330.628L8.50001 325.642L7.50001 325.642ZM7.50001 335.615L7.50001 340.601L8.50001 340.601L8.50001 335.615L7.50001 335.615ZM7.50001 345.588L7.50001 350.574L8.50001 350.574L8.50001 345.588L7.50001 345.588ZM7.50002 355.561L7.50002 360.547L8.50002 360.547L8.50002 355.561L7.50002 355.561ZM7.50002 365.534L7.50002 370.52L8.50002 370.52L8.50002 365.534L7.50002 365.534ZM7.50002 375.507L7.50002 378L8.50002 378L8.50002 375.507L7.50002 375.507Z" fill="#DCDEE3"/>
<circle opacity="0.3" cx="8" cy="8" r="8" fill="#DCDEE3"/>
<circle cx="8" cy="8" r="5" fill="#F3F7F4"/>
<circle cx="2" cy="2" r="2" transform="matrix(-1 0 0 1 10 6)" fill="#7519EB"/>
<circle opacity="0.2" cx="8" cy="377" r="8" fill="#DCDEE3"/>
<circle cx="8" cy="377" r="5" fill="#F3F7F4"/>
<circle cx="2" cy="2" r="2" transform="matrix(-1 0 0 1 10 375)" fill="#7519EB"/>
</svg>
