<svg width="150" height="39" viewBox="0 0 150 39" fill="none" xmlns="http://www.w3.org/2000/svg">
<mask id="mask0_0_18" style="mask-type:alpha" maskUnits="userSpaceOnUse" x="0" y="-3" width="150" height="36">
<rect width="149.346" height="36" transform="matrix(1 0 0 -1 0 33)" fill="#8C8C8C"/>
</mask>
<g mask="url(#mask0_0_18)">
<path d="M195.023 128.742C195.058 129.739 195.081 130.74 195.093 131.743L194.593 131.749C194.599 132.249 194.602 132.749 194.602 133.25C194.602 133.752 194.599 134.252 194.593 134.752L195.093 134.758C195.081 135.761 195.058 136.762 195.023 137.759L194.523 137.742C194.488 138.74 194.442 139.734 194.384 140.726L194.883 140.755C194.825 141.757 194.755 142.756 194.673 143.751L194.175 143.711C194.093 144.705 194 145.696 193.896 146.683L194.393 146.736C194.287 147.734 194.17 148.729 194.041 149.72L193.545 149.656C193.417 150.645 193.277 151.63 193.126 152.611L193.62 152.687C193.467 153.68 193.303 154.668 193.128 155.652L192.635 155.564C192.46 156.546 192.274 157.523 192.076 158.496L192.566 158.596C192.366 159.58 192.155 160.559 191.932 161.534L191.445 161.423C191.223 162.394 190.99 163.362 190.746 164.325L191.231 164.447C190.984 165.42 190.726 166.388 190.457 167.352L189.976 167.217C189.708 168.177 189.428 169.132 189.138 170.083L189.617 170.228C189.324 171.188 189.02 172.143 188.705 173.092L188.23 172.935C187.916 173.881 187.592 174.821 187.256 175.757L187.727 175.926C187.388 176.87 187.039 177.809 186.679 178.742L186.212 178.562C185.853 179.491 185.484 180.416 185.103 181.334L185.565 181.525C185.182 182.452 184.788 183.373 184.383 184.287L183.926 184.085C183.522 184.996 183.109 185.902 182.684 186.801L183.137 187.014C182.709 187.921 182.271 188.822 181.823 189.716L181.376 189.492C180.929 190.383 180.472 191.267 180.005 192.146L180.446 192.38C179.976 193.265 179.495 194.143 179.004 195.015L178.568 194.77C178.079 195.638 177.58 196.5 177.071 197.354L177.5 197.61C176.988 198.471 176.465 199.325 175.933 200.172L175.509 199.906C174.979 200.75 174.439 201.586 173.889 202.416L174.306 202.692C173.752 203.527 173.189 204.354 172.616 205.175L172.206 204.888C171.636 205.705 171.055 206.515 170.466 207.317L170.869 207.613C170.276 208.42 169.673 209.22 169.062 210.011L168.666 209.705C168.056 210.494 167.438 211.274 166.81 212.047L167.198 212.362C166.567 213.14 165.926 213.909 165.277 214.67L164.897 214.345C164.25 215.103 163.594 215.853 162.929 216.594L163.301 216.928C162.633 217.674 161.956 218.411 161.271 219.139L160.907 218.796C160.224 219.522 159.532 220.239 158.832 220.947L159.187 221.299C158.484 222.011 157.772 222.714 157.052 223.408L156.705 223.048C155.987 223.739 155.261 224.422 154.527 225.095L154.865 225.464C154.128 226.14 153.382 226.808 152.629 227.466L152.3 227.089C151.549 227.745 150.791 228.391 150.025 229.028L150.344 229.412C149.575 230.052 148.797 230.681 148.012 231.302L147.702 230.909C146.921 231.527 146.131 232.135 145.334 232.733L145.635 233.133C144.835 233.734 144.027 234.325 143.212 234.905L142.922 234.498C142.111 235.076 141.292 235.645 140.467 236.203L140.747 236.617C139.918 237.177 139.082 237.727 138.24 238.267L137.97 237.845C137.131 238.383 136.285 238.909 135.433 239.426L135.692 239.853C134.837 240.371 133.974 240.879 133.106 241.376L132.857 240.942C131.993 241.436 131.122 241.92 130.245 242.393L130.482 242.833C129.602 243.308 128.715 243.771 127.822 244.224L127.596 243.778C126.708 244.229 125.814 244.668 124.914 245.096L125.129 245.548C124.226 245.977 123.317 246.396 122.402 246.803L122.199 246.346C121.29 246.751 120.375 247.144 119.454 247.527L119.646 247.988C118.722 248.372 117.793 248.744 116.859 249.104L116.679 248.638C115.75 248.996 114.817 249.342 113.878 249.677L114.046 250.148C113.104 250.484 112.157 250.808 111.205 251.121L111.049 250.646C110.104 250.956 109.155 251.255 108.2 251.541L108.343 252.02C107.386 252.308 106.424 252.583 105.457 252.847L105.325 252.365C104.366 252.626 103.402 252.876 102.434 253.113L102.553 253.599C101.582 253.837 100.607 254.063 99.6276 254.277L99.5209 253.789C98.55 254.001 97.5748 254.201 96.5954 254.389L96.6896 254.88C95.7083 255.069 94.7228 255.245 93.7333 255.409L93.6516 254.916C92.6714 255.078 91.6873 255.228 90.6994 255.366L90.7685 255.861C89.7791 255.999 88.786 256.125 87.7892 256.239L87.7326 255.742C86.7457 255.854 85.7552 255.954 84.7612 256.042L84.8051 256.54C83.8104 256.628 82.8123 256.703 81.8109 256.766L81.7795 256.267C80.7883 256.329 79.7938 256.379 78.7961 256.416L78.8149 256.916C77.8176 256.954 76.8172 256.979 75.8139 256.991L75.8076 256.491C75.3081 256.498 74.8077 256.501 74.3067 256.501C73.8057 256.501 73.3054 256.498 72.8058 256.491L72.7996 256.991C71.7962 256.979 70.7959 256.954 69.7986 256.916L69.8173 256.416C68.8197 256.379 67.8252 256.329 66.8339 256.267L66.8026 256.766C65.8012 256.703 64.803 256.628 63.8083 256.54L63.8523 256.042C62.8583 255.954 61.8677 255.854 60.8808 255.742L60.8243 256.239C59.8275 256.125 58.8343 255.999 57.845 255.861L57.9141 255.366C56.9262 255.228 55.942 255.078 54.9619 254.916L54.8802 255.409C53.8907 255.245 52.9052 255.069 51.9239 254.88L52.0181 254.389C51.0387 254.201 50.0635 254.001 49.0926 253.789L48.9858 254.277C48.0063 254.063 47.0311 253.837 46.0605 253.599L46.1796 253.113C45.2112 252.876 44.2474 252.626 43.2883 252.365L43.1567 252.847C42.1897 252.583 41.2274 252.308 40.2701 252.02L40.4139 251.541C39.459 251.255 38.509 250.956 37.5641 250.646L37.4081 251.121C36.4561 250.808 35.5092 250.484 34.5677 250.148L34.7357 249.677C33.7967 249.342 32.863 248.996 31.9348 248.638L31.7549 249.104C30.8203 248.744 29.8912 248.372 28.9678 247.988L29.1595 247.527C28.2388 247.144 27.3238 246.751 26.4146 246.346L26.2113 246.803C25.2965 246.396 24.3875 245.977 23.4846 245.548L23.6994 245.096C22.7993 244.668 21.9053 244.229 21.0174 243.778L20.7913 244.224C19.8984 243.771 19.0117 243.308 18.1315 242.833L18.3688 242.393C17.4914 241.92 16.6205 241.436 15.7562 240.942L15.5079 241.376C14.6391 240.879 13.7769 240.371 12.9214 239.853L13.1804 239.426C12.328 238.909 11.4823 238.383 10.6435 237.846L10.3739 238.267C9.53113 237.727 8.69531 237.177 7.86662 236.617L8.14663 236.203C7.32106 235.645 6.50259 235.076 5.69139 234.498L5.40118 234.905C4.58637 234.325 3.77888 233.734 2.97886 233.133L3.27906 232.733C2.48224 232.135 1.69287 231.527 0.911129 230.909L0.601154 231.302C-0.183876 230.681 -0.96125 230.052 -1.7308 229.412L-1.41125 229.028C-2.17751 228.391 -2.93597 227.745 -3.68648 227.089L-4.01538 227.466C-4.76889 226.808 -5.51441 226.14 -6.25177 225.464L-5.91374 225.095C-6.64772 224.422 -7.37358 223.74 -8.09116 223.048L-8.4381 223.408C-9.15845 222.714 -9.87049 222.011 -10.574 221.299L-10.2184 220.948C-10.9185 220.239 -11.6101 219.522 -12.2932 218.796L-12.6573 219.139C-13.3429 218.411 -14.0198 217.674 -14.688 216.928L-14.3157 216.594C-14.9803 215.853 -15.6362 215.103 -16.2832 214.345L-16.6635 214.67C-17.3129 213.909 -17.9534 213.14 -18.5847 212.363L-18.1966 212.047C-18.8244 211.275 -19.443 210.494 -20.0525 209.705L-20.4481 210.011C-21.0599 209.22 -21.6624 208.42 -22.2554 207.613L-21.8525 207.317C-22.442 206.515 -23.0221 205.705 -23.5927 204.888L-24.0027 205.175C-24.5754 204.354 -25.1386 203.527 -25.6921 202.692L-25.2753 202.416C-25.8252 201.586 -26.3654 200.75 -26.8959 199.906L-27.3192 200.172C-27.8517 199.325 -28.3743 198.471 -28.887 197.61L-28.4574 197.354C-28.9664 196.5 -29.4656 195.638 -29.9547 194.77L-30.3904 195.015C-30.8813 194.144 -31.3623 193.265 -31.8329 192.38L-31.3915 192.146C-31.8586 191.267 -32.3155 190.383 -32.7622 189.492L-33.2092 189.716C-33.6576 188.822 -34.0957 187.921 -34.5233 187.015L-34.071 186.801C-34.4951 185.902 -34.9089 184.997 -35.3121 184.085L-35.7694 184.287C-36.1741 183.373 -36.5684 182.452 -36.9519 181.525L-36.4899 181.334C-36.8701 180.416 -37.2397 179.491 -37.5986 178.562L-38.0651 178.742C-38.4254 177.809 -38.7749 176.87 -39.1135 175.926L-38.6428 175.757C-38.9783 174.821 -39.303 173.881 -39.6168 172.935L-40.0913 173.092C-40.4063 172.143 -40.7103 171.188 -41.0032 170.229L-40.525 170.083C-40.815 169.132 -41.0941 168.177 -41.3622 167.217L-41.8437 167.352C-42.1127 166.388 -42.3706 165.42 -42.6172 164.447L-42.1326 164.325C-42.3766 163.362 -42.6096 162.395 -42.8314 161.423L-43.3189 161.534C-43.5414 160.559 -43.7526 159.58 -43.9525 158.596L-43.4625 158.496C-43.6602 157.523 -43.8467 156.546 -44.0219 155.564L-44.5141 155.652C-44.6898 154.668 -44.8541 153.68 -45.0069 152.688L-44.5127 152.611C-44.6638 151.63 -44.8036 150.645 -44.932 149.656L-45.4278 149.72C-45.5565 148.729 -45.6737 147.734 -45.7793 146.736L-45.2821 146.683C-45.3865 145.696 -45.4796 144.705 -45.5612 143.711L-46.0595 143.751C-46.1412 142.756 -46.2113 141.757 -46.2698 140.755L-45.7707 140.726C-45.8286 139.734 -45.875 138.74 -45.9099 137.742L-46.4096 137.759C-46.4445 136.762 -46.4678 135.761 -46.4795 134.758L-45.9795 134.752C-45.9854 134.252 -45.9883 133.752 -45.9883 133.25C-45.9883 132.749 -45.9854 132.249 -45.9795 131.749L-46.4795 131.743C-46.4678 130.74 -46.4445 129.739 -46.4096 128.742L-45.9099 128.759C-45.875 127.761 -45.8286 126.767 -45.7707 125.775L-46.2698 125.746C-46.2113 124.744 -46.1412 123.745 -46.0595 122.749L-45.5612 122.79C-45.4796 121.796 -45.3865 120.805 -45.2821 119.818L-45.7793 119.765C-45.6737 118.767 -45.5565 117.772 -45.4278 116.781L-44.932 116.845C-44.8036 115.856 -44.6638 114.871 -44.5127 113.89L-45.0069 113.813C-44.8541 112.821 -44.6898 111.833 -44.5141 110.849L-44.0219 110.937C-43.8467 109.955 -43.6602 108.978 -43.4625 108.005L-43.9525 107.905C-43.7526 106.921 -43.5414 105.942 -43.3189 104.967L-42.8314 105.078C-42.6096 104.106 -42.3766 103.139 -42.1326 102.176L-42.6172 102.054C-42.3706 101.081 -42.1127 100.112 -41.8437 99.1491L-41.3622 99.2836C-41.0941 98.3237 -40.815 97.3686 -40.525 96.4184L-41.0032 96.2724C-40.7103 95.3128 -40.4063 94.3581 -40.0913 93.4087L-39.6168 93.5661C-39.303 92.6203 -38.9783 91.6795 -38.6428 90.7441L-39.1135 90.5754C-38.7749 89.6311 -38.4254 88.6923 -38.0651 87.7591L-37.5987 87.9392C-37.2398 87.0095 -36.8701 86.0853 -36.49 85.1669L-36.9519 84.9757C-36.5684 84.0491 -36.1742 83.1283 -35.7694 82.2135L-35.3121 82.4158C-34.9089 81.5045 -34.4951 80.599 -34.071 79.6997L-34.5233 79.4865C-34.0957 78.5797 -33.6576 77.6791 -33.2092 76.7848L-32.7622 77.0089C-32.3156 76.1181 -31.8586 75.2335 -31.3915 74.3554L-31.8329 74.1206C-31.3623 73.2357 -30.8814 72.3574 -30.3904 71.4859L-29.9547 71.7313C-29.4656 70.8629 -28.9665 70.0013 -28.4574 69.1465L-28.887 68.8907C-28.3743 68.0298 -27.8517 67.1759 -27.3192 66.329L-26.8959 66.5951C-26.3655 65.7514 -25.8252 64.9148 -25.2754 64.0853L-25.6921 63.8091C-25.1386 62.9741 -24.5754 62.1465 -24.0027 61.3264L-23.5927 61.6126C-23.0221 60.7955 -22.442 59.9859 -21.8526 59.1838L-22.2555 58.8877C-21.6624 58.0807 -21.0599 57.2814 -20.4482 56.4899L-20.0525 56.7957C-19.4431 56.0072 -18.8244 55.2264 -18.1966 54.4537L-18.5847 54.1384C-17.9534 53.3613 -17.313 52.5922 -16.6636 51.8313L-16.2832 52.1559C-15.6363 51.3978 -14.9804 50.648 -14.3157 49.9065L-14.688 49.5728C-14.0199 48.8273 -13.3429 48.0903 -12.6573 47.3619L-12.2932 47.7046C-11.6102 46.9789 -10.9185 46.2618 -10.2184 45.5534L-10.5741 45.202C-9.87051 44.4901 -9.15848 43.787 -8.43813 43.0929L-8.09119 43.4529C-7.37362 42.7614 -6.64775 42.0789 -5.91377 41.4055L-6.2518 41.0371C-5.51444 40.3605 -4.76892 39.6932 -4.01541 39.0351L-3.68651 39.4117C-2.936 38.7563 -2.17754 38.1101 -1.41129 37.4734L-1.73083 37.0888C-0.961288 36.4494 -0.183914 35.8195 0.601116 35.1992L0.911091 35.5916C1.69284 34.9739 2.4822 34.3659 3.27901 33.7677L2.97882 33.3678C3.77884 32.7672 4.58634 32.1764 5.40115 31.5957L5.69135 32.0028C6.50255 31.4246 7.32102 30.8564 8.1466 30.2984L7.86658 29.8841C8.69527 29.324 9.53109 28.774 10.3739 28.2344L10.6435 28.6554C11.4823 28.1184 12.3279 27.5916 13.1804 27.0753L12.9214 26.6477C13.7768 26.1296 14.639 25.6219 15.5079 25.125L15.7561 25.559C16.6205 25.0646 17.4914 24.5809 18.3687 24.1079L18.1314 23.6678C19.0117 23.1932 19.8983 22.7295 20.7912 22.2767L21.0173 22.7226C21.9052 22.2724 22.7993 21.8331 23.6994 21.4048L23.4845 20.9533C24.3875 20.5237 25.2964 20.1052 26.2113 19.698L26.4146 20.1548C27.3238 19.7501 28.2388 19.3565 29.1595 18.9743L28.9678 18.5125C29.8912 18.1292 30.8202 17.7572 31.7548 17.3968L31.9347 17.8633C32.863 17.5053 33.7966 17.1588 34.7356 16.8238L34.5676 16.3529C35.5092 16.0169 36.4561 15.6926 37.4081 15.3801L37.564 15.8552C38.5089 15.545 39.4589 15.2464 40.4138 14.9597L40.27 14.4808C41.2274 14.1933 42.1896 13.9177 43.1567 13.654L43.2882 14.1364C44.2473 13.8749 45.2112 13.6252 46.1796 13.3875L46.0604 12.9019C47.031 12.6637 48.0062 12.4375 48.9858 12.2235L49.0925 12.7119C50.0634 12.4998 51.0386 12.2996 52.0181 12.1116L51.9238 11.6206C52.9051 11.4322 53.8906 11.256 54.8801 11.0921L54.9618 11.5854C55.942 11.4231 56.9261 11.2729 57.914 11.135L57.8449 10.6398C58.8343 10.5017 59.8274 10.3758 60.8243 10.2624L60.8808 10.7592C61.8677 10.6469 62.8582 10.5469 63.8522 10.4592L63.8083 9.96114C64.803 9.87341 65.8011 9.79803 66.8026 9.73515L66.8339 10.2342C67.8251 10.1719 68.8197 10.122 69.8173 10.0845L69.7985 9.58483C70.7958 9.54735 71.7962 9.52225 72.7995 9.50968L72.8058 10.0096C73.3054 10.0034 73.8057 10.0002 74.3067 10.0002C74.8077 10.0002 75.308 10.0034 75.8076 10.0096L75.8139 9.50968C76.8172 9.52225 77.8176 9.54735 78.8149 9.58483L78.7961 10.0845C79.7937 10.122 80.7882 10.1719 81.7795 10.2342L81.8108 9.73514C82.8123 9.79803 83.8104 9.87341 84.8051 9.96114L84.7612 10.4592C85.7552 10.5469 86.7457 10.6469 87.7326 10.7592L87.7891 10.2624C88.7859 10.3758 89.7791 10.5017 90.7685 10.6398L90.6993 11.135C91.6873 11.2729 92.6714 11.4231 93.6515 11.5854L93.7332 11.0921C94.7227 11.256 95.7083 11.4322 96.6896 11.6206L96.5953 12.1116C97.5747 12.2996 98.55 12.4998 99.5208 12.7119L99.6276 12.2234C100.607 12.4375 101.582 12.6637 102.553 12.9019L102.434 13.3875C103.402 13.6252 104.366 13.8749 105.325 14.1364L105.457 13.654C106.424 13.9177 107.386 14.1933 108.343 14.4808L108.2 14.9597C109.154 15.2464 110.104 15.545 111.049 15.8552L111.205 15.3801C112.157 15.6926 113.104 16.0169 114.046 16.3528L113.878 16.8238C114.817 17.1587 115.75 17.5053 116.679 17.8633L116.859 17.3968C117.793 17.7572 118.722 18.1292 119.646 18.5125L119.454 18.9743C120.375 19.3565 121.29 19.7501 122.199 20.1548L122.402 19.698C123.317 20.1052 124.226 20.5237 125.129 20.9533L124.914 21.4048C125.814 21.8331 126.708 22.2724 127.596 22.7226L127.822 22.2767C128.715 22.7294 129.602 23.1932 130.482 23.6678L130.245 24.1079C131.122 24.5809 131.993 25.0646 132.857 25.559L133.105 25.125C133.974 25.6219 134.837 26.1295 135.692 26.6476L135.433 27.0753C136.285 27.5916 137.131 28.1184 137.97 28.6554L138.24 28.2343C139.082 28.774 139.918 29.3239 140.747 29.8841L140.467 30.2983C141.292 30.8564 142.111 31.4246 142.922 32.0028L143.212 31.5956C144.027 32.1764 144.835 32.7672 145.635 33.3678L145.334 33.7676C146.131 34.3658 146.921 34.9739 147.702 35.5915L148.012 35.1992C148.797 35.8195 149.575 36.4494 150.344 37.0888L150.025 37.4734C150.791 38.1101 151.549 38.7562 152.3 39.4117L152.629 39.0351C153.382 39.6931 154.128 40.3605 154.865 41.037L154.527 41.4055C155.261 42.0789 155.987 42.7614 156.705 43.4529L157.052 43.0928C157.772 43.787 158.484 44.4901 159.187 45.2019L158.832 45.5534C159.532 46.2618 160.224 46.9789 160.907 47.7046L161.271 47.3619C161.956 48.0903 162.633 48.8273 163.301 49.5727L162.929 49.9065C163.594 50.648 164.25 51.3978 164.897 52.1559L165.277 51.8313C165.926 52.5922 166.567 53.3613 167.198 54.1384L166.81 54.4537C167.438 55.2264 168.056 56.0071 168.666 56.7957L169.062 56.4899C169.673 57.2814 170.276 58.0807 170.869 58.8877L170.466 59.1838C171.055 59.9858 171.636 60.7955 172.206 61.6126L172.616 61.3263C173.189 62.1465 173.752 62.9741 174.306 63.809L173.889 64.0853C174.439 64.9147 174.979 65.7514 175.509 66.5951L175.933 66.3289C176.465 67.1758 176.988 68.0298 177.5 68.8907L177.071 69.1465C177.58 70.0013 178.079 70.8629 178.568 71.7312L179.004 71.4858C179.495 72.3574 179.976 73.2357 180.446 74.1206L180.005 74.3554C180.472 75.2335 180.929 76.118 181.376 77.0089L181.823 76.7848C182.271 77.6791 182.709 78.5797 183.137 79.4864L182.684 79.6997C183.109 80.599 183.522 81.5044 183.926 82.4158L184.383 82.2134C184.788 83.1283 185.182 84.0491 185.565 84.9756L185.103 85.1669C185.484 86.0853 185.853 87.0094 186.212 87.9391L186.679 87.7591C187.039 88.6923 187.388 89.6311 187.727 90.5753L187.256 90.7441C187.592 91.6795 187.916 92.6202 188.23 93.5661L188.705 93.4087C189.02 94.3581 189.324 95.3128 189.617 96.2724L189.138 96.4184C189.428 97.3685 189.708 98.3237 189.976 99.2836L190.457 99.1491C190.726 100.112 190.984 101.081 191.231 102.053L190.746 102.176C190.99 103.139 191.223 104.106 191.445 105.078L191.932 104.967C192.155 105.942 192.366 106.921 192.566 107.905L192.076 108.005C192.274 108.978 192.46 109.955 192.635 110.936L193.128 110.849C193.303 111.833 193.467 112.821 193.62 113.813L193.126 113.89C193.277 114.871 193.417 115.856 193.545 116.845L194.041 116.781C194.17 117.772 194.287 118.767 194.393 119.765L193.895 119.818C194 120.805 194.093 121.796 194.175 122.79L194.673 122.749C194.755 123.745 194.825 124.744 194.883 125.746L194.384 125.775C194.442 126.767 194.488 127.761 194.523 128.759L195.023 128.742Z" stroke="#DCDEE3" stroke-miterlimit="12.8023" stroke-dasharray="3 3"/>
</g>
<g clip-path="url(#clip0_0_18)">
<path d="M70.6226 19.4H72.5749L76.9557 11.399H81.9944C81.9944 11.399 84.9228 11.399 84.9228 10C84.9228 8.60002 81.9944 8.60002 81.9944 8.60002H76.9557L72.5749 0.600021H70.6226L73.0512 8.60002H69.5499L67.3526 6.59902H65.4004L66.9632 9.99902L65.4004 13.4H67.3526L69.5499 11.399H73.0512L70.6226 19.4Z" fill="#7519EB"/>
</g>
<ellipse cx="7.80896" cy="31" rx="7.80896" ry="8" fill="#F6F6F8"/>
<ellipse opacity="0.8" cx="7.80931" cy="31" rx="4.8806" ry="5" fill="white"/>
<ellipse cx="1.95224" cy="2" rx="1.95224" ry="2" transform="matrix(-1 0 0 1 9.76074 29)" fill="#7519EB"/>
<ellipse opacity="0.2" cx="141.537" cy="31" rx="7.80896" ry="8" fill="#DCDEE3"/>
<ellipse opacity="0.8" cx="141.538" cy="31" rx="4.8806" ry="5" fill="white"/>
<ellipse cx="1.95224" cy="2" rx="1.95224" ry="2" transform="matrix(-1 0 0 1 143.489 29)" fill="#7519EB"/>
<defs>
<clipPath id="clip0_0_18">
<rect width="19.5224" height="20" fill="white" transform="translate(65.4004)"/>
</clipPath>
</defs>
</svg>
