<svg width="20" height="20" viewBox="0 0 20 20" fill="none" xmlns="http://www.w3.org/2000/svg">
<path d="M9.99943 13.5999C7.99945 13.5999 6.39947 11.9999 6.39947 9.99989C6.39947 7.99992 7.99945 6.39993 9.99943 6.39993C11.9994 6.39993 13.5994 7.99992 13.5994 9.99989C13.5994 11.9999 11.9994 13.5999 9.99943 13.5999ZM9.99943 7.19992C8.43945 7.19992 7.19946 8.43991 7.19946 9.99989C7.19946 11.5599 8.43945 12.7999 9.99943 12.7999C11.5594 12.7999 12.7994 11.5599 12.7994 9.99989C12.7994 8.43991 11.5594 7.19992 9.99943 7.19992Z" fill="#45EA69"/>
<path d="M11.0796 17.5999H8.91961L8.31961 15.7599C7.91962 15.6399 7.51962 15.4799 7.15963 15.2799L5.39964 16.1599L3.87966 14.6399L4.75965 12.8799C4.55965 12.5199 4.39965 12.1199 4.27966 11.7199L2.39967 11.08V8.91997L4.23966 8.31998C4.35965 7.91998 4.51965 7.51999 4.71965 7.15999L3.83966 5.40001L5.35964 3.88002L7.11963 4.76002C7.47962 4.56002 7.87962 4.40002 8.27961 4.28002L8.91961 2.40004H11.0796L11.6796 4.24002C12.0796 4.36002 12.4796 4.52002 12.8396 4.72002L14.5996 3.84003L16.1195 5.36001L15.2395 7.11999C15.4395 7.47999 15.5995 7.87998 15.7195 8.27998L17.5595 8.87997V11.04L15.7195 11.6399C15.5995 12.0399 15.4395 12.4399 15.2395 12.7999L16.1195 14.5599L14.5996 16.0799L12.8396 15.1999C12.4796 15.3999 12.0796 15.5599 11.6796 15.6799L11.0796 17.5999ZM9.4796 16.7999H10.5196L11.0796 15.0799L11.2796 15.0399C11.7596 14.9199 12.1996 14.7199 12.6396 14.4799L12.8396 14.3599L14.4396 15.1599L15.1595 14.4399L14.3596 12.8399L14.4796 12.6399C14.7195 12.2399 14.9195 11.7599 15.0395 11.2799L15.0795 11.08L16.7995 10.52V9.47997L15.0795 8.91997L15.0395 8.71997C14.9195 8.23998 14.7195 7.79998 14.4796 7.35999L14.3596 7.15999L15.1595 5.56001L14.4396 4.84002L12.8396 5.64001L12.6396 5.52001C12.1996 5.28001 11.7596 5.08001 11.2796 4.96001L11.0796 4.92001L10.5196 3.20003H9.4796L8.91961 4.92001L8.71961 4.96001C8.23961 5.08001 7.79962 5.28001 7.35962 5.52001L7.15963 5.64001L5.55964 4.84002L4.83965 5.56001L5.63964 7.15999L5.51964 7.35999C5.27965 7.75998 5.07965 8.23998 4.95965 8.71997L4.91965 8.91997L3.19967 9.47997V10.52L4.91965 11.08L4.95965 11.2799C5.07965 11.7599 5.27965 12.1999 5.51964 12.6399L5.63964 12.8399L4.83965 14.4399L5.55964 15.1599L7.15963 14.3599L7.35962 14.4799C7.79962 14.7199 8.23961 14.9199 8.71961 15.0399L8.91961 15.0799L9.4796 16.7999Z" fill="#45EA69"/>
</svg>
