<svg width="16" height="16" viewBox="0 0 16 16" fill="none" xmlns="http://www.w3.org/2000/svg">
<g clip-path="url(#clip0_137_11444)">
<path d="M2.77757 5.11106L5.33313 5.84884L8.14202 3.80884L4.11091 3.92439C4.07144 3.92655 4.03318 3.93879 3.99979 3.95995L2.72424 4.69328C2.68456 4.71527 2.65239 4.74865 2.63189 4.78911C2.61139 4.82958 2.6035 4.87526 2.60925 4.92026C2.61499 4.96525 2.6341 5.00749 2.66411 5.0415C2.69412 5.07552 2.73364 5.09975 2.77757 5.11106Z" fill="#51535E"/>
<path d="M15.342 2.82677L12.542 2.22232C12.3065 2.1712 12.0628 2.17134 11.8274 2.22272C11.592 2.2741 11.3703 2.37552 11.1776 2.5201L2.7198 8.66677L0.68869 8.57788C0.57235 8.57392 0.457707 8.60661 0.360948 8.67133C0.264189 8.73605 0.190204 8.82952 0.149438 8.93856C0.108673 9.0476 0.103187 9.16668 0.133755 9.279C0.164324 9.39133 0.229402 9.49121 0.319801 9.56455L2.29758 11.1334C2.33014 11.1597 2.36889 11.1772 2.41014 11.1842C2.45138 11.1912 2.49373 11.1875 2.53313 11.1734C3.09758 10.9557 5.1998 9.8401 7.68425 8.47566L8.18202 13.5912C8.18625 13.6355 8.20249 13.6778 8.22899 13.7136C8.2555 13.7493 8.29126 13.7772 8.33242 13.7941C8.37358 13.811 8.41858 13.8164 8.46257 13.8096C8.50656 13.8028 8.54786 13.7842 8.58202 13.7557L9.69314 12.8312C9.75396 12.7802 9.79487 12.7094 9.80869 12.6312L10.862 6.72455C12.6398 5.73788 14.3376 4.78232 15.5331 4.10677C15.6572 4.03926 15.7575 3.93524 15.8205 3.80881C15.8835 3.68237 15.9061 3.53964 15.8852 3.39994C15.8644 3.26024 15.8011 3.13032 15.7039 3.0278C15.6067 2.92528 15.4804 2.8551 15.342 2.82677Z" fill="#51535E"/>
</g>
<defs>
<clipPath id="clip0_137_11444">
<rect width="16" height="16" fill="white"/>
</clipPath>
</defs>
</svg>
