<svg width="22" height="22" viewBox="0 0 22 22" fill="none" xmlns="http://www.w3.org/2000/svg">
<path d="M16.1157 22H5.392C2.52688 22 0.705484 20.2912 0.541764 17.4363L0.00967051 8.99442C-0.07219 7.71535 0.36781 6.48744 1.24781 5.55628C2.11758 4.62512 3.34548 4.09302 4.61432 4.09302C4.94176 4.09302 5.25897 3.8986 5.41246 3.59163L6.14921 2.12837C6.75293 0.931163 8.26734 0 9.58734 0H11.9306C13.2506 0 14.7548 0.931163 15.3585 2.11814L16.0953 3.61209C16.2487 3.8986 16.5557 4.09302 16.8934 4.09302C18.1622 4.09302 19.3901 4.62512 20.2599 5.55628C21.1399 6.49767 21.5799 7.71535 21.498 8.99442L20.9659 17.4465C20.7818 20.3423 19.0115 22 16.1157 22ZM9.58734 1.53488C8.83014 1.53488 7.86828 2.12837 7.52037 2.81395L6.78362 4.28744C6.35386 5.11628 5.52502 5.62791 4.61432 5.62791C3.75479 5.62791 2.95665 5.97581 2.36316 6.6C1.7799 7.22419 1.48316 8.04279 1.54455 8.89209L2.07665 17.3442C2.19944 19.4112 3.31479 20.4651 5.392 20.4651H16.1157C18.1827 20.4651 19.298 19.4112 19.4311 17.3442L19.9632 8.89209C20.0143 8.04279 19.7278 7.22419 19.1446 6.6C18.5511 5.97581 17.7529 5.62791 16.8934 5.62791C15.9827 5.62791 15.1539 5.11628 14.7241 4.30791L13.9771 2.81395C13.6394 2.1386 12.6776 1.54512 11.9204 1.54512H9.58734V1.53488Z" fill="#51535E"/>
<path d="M12.2891 7.67442H9.2193C8.79976 7.67442 8.45185 7.32651 8.45185 6.90698C8.45185 6.48744 8.79976 6.13953 9.2193 6.13953H12.2891C12.7086 6.13953 13.0565 6.48744 13.0565 6.90698C13.0565 7.32651 12.7086 7.67442 12.2891 7.67442Z" fill="#51535E"/>
<path d="M10.7542 17.907C8.49278 17.907 6.66116 16.0753 6.66116 13.814C6.66116 11.5526 8.49278 9.72093 10.7542 9.72093C13.0156 9.72093 14.8472 11.5526 14.8472 13.814C14.8472 16.0753 13.0156 17.907 10.7542 17.907ZM10.7542 11.2558C9.34209 11.2558 8.19604 12.4019 8.19604 13.814C8.19604 15.226 9.34209 16.3721 10.7542 16.3721C12.1663 16.3721 13.3123 15.226 13.3123 13.814C13.3123 12.4019 12.1663 11.2558 10.7542 11.2558Z" fill="#51535E"/>
</svg>
