<svg width="24" height="24" viewBox="0 0 24 24" fill="none" xmlns="http://www.w3.org/2000/svg">
<path d="M20.25 15.5625H18.1219C17.9954 15.0285 17.6924 14.5528 17.262 14.2124C16.8315 13.872 16.2988 13.6868 15.75 13.6868C15.2012 13.6868 14.6685 13.872 14.238 14.2124C13.8076 14.5528 13.5046 15.0285 13.3781 15.5625H3.75C3.60082 15.5625 3.45774 15.6217 3.35225 15.7272C3.24676 15.8327 3.1875 15.9758 3.1875 16.125C3.1875 16.2742 3.24676 16.4172 3.35225 16.5227C3.45774 16.6282 3.60082 16.6875 3.75 16.6875H13.3781C13.5046 17.2215 13.8076 17.6972 14.238 18.0376C14.6685 18.378 15.2012 18.5632 15.75 18.5632C16.2988 18.5632 16.8315 18.378 17.262 18.0376C17.6924 17.6972 17.9954 17.2215 18.1219 16.6875H20.25C20.3992 16.6875 20.5423 16.6282 20.6477 16.5227C20.7532 16.4172 20.8125 16.2742 20.8125 16.125C20.8125 15.9758 20.7532 15.8327 20.6477 15.7272C20.5423 15.6217 20.3992 15.5625 20.25 15.5625ZM15.75 17.4375C15.4904 17.4375 15.2367 17.3605 15.0208 17.2163C14.805 17.0721 14.6367 16.8671 14.5374 16.6272C14.4381 16.3874 14.4121 16.1235 14.4627 15.8689C14.5134 15.6143 14.6384 15.3805 14.8219 15.1969C15.0055 15.0133 15.2393 14.8883 15.4939 14.8377C15.7485 14.787 16.0124 14.813 16.2523 14.9124C16.4921 15.0117 16.6971 15.1799 16.8413 15.3958C16.9855 15.6116 17.0625 15.8654 17.0625 16.125C17.0625 16.4731 16.9242 16.8069 16.6781 17.053C16.4319 17.2992 16.0981 17.4375 15.75 17.4375ZM3.75 8.43747H7.37812C7.50461 8.97148 7.80759 9.44718 8.23804 9.78758C8.66849 10.128 9.20122 10.3132 9.75 10.3132C10.2988 10.3132 10.8315 10.128 11.262 9.78758C11.6924 9.44718 11.9954 8.97148 12.1219 8.43747H20.25C20.3992 8.43747 20.5423 8.37821 20.6477 8.27272C20.7532 8.16723 20.8125 8.02416 20.8125 7.87497C20.8125 7.72579 20.7532 7.58271 20.6477 7.47722C20.5423 7.37173 20.3992 7.31247 20.25 7.31247H12.1219C11.9954 6.77846 11.6924 6.30276 11.262 5.96236C10.8315 5.62196 10.2988 5.43677 9.75 5.43677C9.20122 5.43677 8.66849 5.62196 8.23804 5.96236C7.80759 6.30276 7.50461 6.77846 7.37812 7.31247H3.75C3.60082 7.31247 3.45774 7.37173 3.35225 7.47722C3.24676 7.58271 3.1875 7.72579 3.1875 7.87497C3.1875 8.02416 3.24676 8.16723 3.35225 8.27272C3.45774 8.37821 3.60082 8.43747 3.75 8.43747ZM9.75 6.56247C10.0096 6.56247 10.2633 6.63945 10.4792 6.78367C10.695 6.92789 10.8633 7.13287 10.9626 7.3727C11.0619 7.61253 11.0879 7.87643 11.0373 8.13103C10.9866 8.38563 10.8616 8.61949 10.6781 8.80305C10.4945 8.98661 10.2607 9.11161 10.0061 9.16225C9.75146 9.21289 9.48756 9.1869 9.24773 9.08756C9.0079 8.98822 8.80292 8.82 8.6587 8.60416C8.51448 8.38832 8.4375 8.13456 8.4375 7.87497C8.4375 7.52687 8.57578 7.19303 8.82192 6.94689C9.06806 6.70075 9.4019 6.56247 9.75 6.56247Z" fill="#51535E"/>
</svg>
