<svg width="20" height="20" viewBox="0 0 20 20" fill="none" xmlns="http://www.w3.org/2000/svg">
<path d="M9.99974 3.73334C9.37014 3.73334 8.75467 3.92004 8.23118 4.26983C7.70768 4.61962 7.29966 5.11678 7.05872 5.69846C6.81779 6.28014 6.75474 6.9202 6.87757 7.53771C7.0004 8.15522 7.30359 8.72243 7.74878 9.16763C8.19398 9.61283 8.7612 9.91601 9.3787 10.0388C9.99621 10.1617 10.6363 10.0986 11.218 9.85769C11.7996 9.61675 12.2968 9.20873 12.6466 8.68524C12.9964 8.16174 13.1831 7.54628 13.1831 6.91667C13.1831 6.0724 12.8477 5.26271 12.2507 4.66571C11.6537 4.06872 10.844 3.73334 9.99974 3.73334ZM9.99974 8.98889C9.58989 8.98889 9.18925 8.86736 8.84848 8.63966C8.5077 8.41196 8.2421 8.08833 8.08526 7.70968C7.92842 7.33103 7.88738 6.91437 7.96734 6.5124C8.04729 6.11043 8.24465 5.74119 8.53446 5.45139C8.82426 5.16158 9.1935 4.96422 9.59547 4.88427C9.99744 4.80431 10.4141 4.84535 10.7927 5.00219C11.1714 5.15903 11.495 5.42463 11.7227 5.76541C11.9504 6.10618 12.072 6.50682 12.072 6.91667C12.0705 7.4653 11.8515 7.99095 11.4631 8.37836C11.0746 8.76578 10.5484 8.98334 9.99974 8.98334V8.98889Z" fill="#8C8A93"/>
<path d="M10.0005 1.11111C8.27005 1.11256 6.61049 1.79872 5.38428 3.01972C4.15807 4.24073 3.46486 5.89736 3.45605 7.62778C3.45605 10.2222 4.91161 12.3944 5.97828 13.9778L6.17272 14.2667C7.23399 15.8048 8.37248 17.2882 9.58383 18.7111L10.0061 19.2056L10.4283 18.7111C11.6395 17.2881 12.778 15.8047 13.8394 14.2667L14.0338 13.9722C15.0949 12.3889 16.5505 10.2222 16.5505 7.62778C16.5417 5.8964 15.8477 4.23893 14.6203 3.01777C13.3929 1.7966 11.7319 1.11109 10.0005 1.11111ZM13.1061 13.3333L12.9061 13.6278C11.9505 15.0611 10.6838 16.6667 10.0005 17.4611C9.34494 16.6667 8.0505 15.0611 7.09494 13.6278L6.9005 13.3333C5.91717 11.8667 4.56717 9.86111 4.56717 7.60556C4.56717 6.89204 4.7077 6.18551 4.98075 5.52631C5.2538 4.86711 5.65402 4.26814 6.15855 3.76361C6.66308 3.25908 7.26205 2.85886 7.92125 2.58581C8.58045 2.31276 9.28698 2.17223 10.0005 2.17223C10.714 2.17223 11.4205 2.31276 12.0797 2.58581C12.7389 2.85886 13.3379 3.25908 13.8424 3.76361C14.347 4.26814 14.7472 4.86711 15.0202 5.52631C15.2933 6.18551 15.4338 6.89204 15.4338 7.60556C15.4338 9.88334 14.0894 11.8889 13.1061 13.3333Z" fill="#8C8A93"/>
</svg>
