<svg width="32" height="13" viewBox="0 0 32 13" fill="none" xmlns="http://www.w3.org/2000/svg">
<path d="M14.9356 6.10633V9.80806H13.7608V0.666916H16.8752C17.6645 0.666916 18.3375 0.930016 18.8882 1.45621C19.4511 1.98241 19.7325 2.62486 19.7325 3.38356C19.7325 4.16062 19.4511 4.80307 18.8882 5.32315C18.3436 5.84323 17.6706 6.10021 16.8752 6.10021H14.9356V6.10633ZM14.9356 1.79273V4.98051H16.8996C17.3646 4.98051 17.7562 4.82143 18.0622 4.50938C18.3742 4.19733 18.5333 3.81798 18.5333 3.38968C18.5333 2.9675 18.3742 2.59427 18.0622 2.28222C17.7562 1.95794 17.3708 1.79885 16.8996 1.79885H14.9356V1.79273Z" fill="#51535E"/>
<path d="M22.8034 3.3469C23.6723 3.3469 24.3576 3.57941 24.8593 4.04442C25.361 4.50943 25.6119 5.14576 25.6119 5.95341V9.80811H24.4922V8.93927H24.4432C23.9599 9.65515 23.3113 10.01 22.5036 10.01C21.8122 10.01 21.2371 9.80811 20.7721 9.39817C20.3071 8.98822 20.0746 8.48038 20.0746 7.86852C20.0746 7.21996 20.3193 6.706 20.8088 6.32664C21.2983 5.94117 21.953 5.7515 22.7667 5.7515C23.4643 5.7515 24.0394 5.87999 24.4861 6.13697V5.86775C24.4861 5.45781 24.327 5.11517 24.0027 4.82759C23.6784 4.54002 23.2991 4.39929 22.8646 4.39929C22.2099 4.39929 21.6899 4.67463 21.3105 5.23142L20.2765 4.58285C20.8455 3.75684 21.6899 3.3469 22.8034 3.3469ZM21.286 7.88688C21.286 8.19281 21.4145 8.44979 21.6776 8.6517C21.9346 8.85361 22.2405 8.95763 22.5893 8.95763C23.0849 8.95763 23.5254 8.77407 23.9109 8.40696C24.2964 8.03984 24.4922 7.61155 24.4922 7.11594C24.1251 6.82837 23.6172 6.68152 22.9625 6.68152C22.4853 6.68152 22.0876 6.79778 21.7694 7.02416C21.4451 7.26279 21.286 7.55036 21.286 7.88688Z" fill="#51535E"/>
<path d="M32.0002 3.54881L28.0843 12.5553H26.8728L28.329 9.40428L25.747 3.54881H27.0258L28.8858 8.03984H28.9103L30.7214 3.54881H32.0002Z" fill="#51535E"/>
<path d="M10.2623 5.35988C10.2623 4.97686 10.2281 4.61036 10.1644 4.25793H5.24022V6.27706L8.07618 6.27767C7.96115 6.94949 7.59097 7.52218 7.02378 7.90398V9.21397H8.7119C9.6976 8.30169 10.2623 6.95316 10.2623 5.35988Z" fill="#4285F4"/>
<path d="M7.02501 7.90393C6.5551 8.22087 5.94998 8.40627 5.24206 8.40627C3.87456 8.40627 2.71448 7.48481 2.29903 6.24274H0.557682V7.59372C1.4204 9.3057 3.19356 10.4805 5.24206 10.4805C6.6579 10.4805 7.84735 10.0148 8.71312 9.21331L7.02501 7.90393Z" fill="#34A853"/>
<path d="M2.13477 5.24057C2.13477 4.89181 2.19289 4.55468 2.29875 4.23773V2.88675H0.557401C0.200688 3.59467 0 4.39376 0 5.24057C0 6.08738 0.2013 6.88646 0.557401 7.59438L2.29875 6.2434C2.19289 5.92646 2.13477 5.58932 2.13477 5.24057Z" fill="#FABB05"/>
<path d="M5.24206 2.07419C6.01483 2.07419 6.70684 2.34035 7.25323 2.86043L8.74922 1.36567C7.84062 0.519467 6.65606 0 5.24206 0C3.19417 0 1.4204 1.17476 0.557682 2.88674L2.29903 4.23772C2.71448 2.99565 3.87456 2.07419 5.24206 2.07419Z" fill="#E94235"/>
</svg>
